<?xml version="1.0" encoding="utf-8"?>
<!-- Generator: Adobe Illustrator 24.1.2, SVG Export Plug-In . SVG Version: 6.00 Build 0)  -->
<svg version="1.1" id="Layer_1" xmlns="http://www.w3.org/2000/svg" xmlns:xlink="http://www.w3.org/1999/xlink" x="0px" y="0px"
	 viewBox="0 0 496.2 496.2" style="enable-background:new 0 0 496.2 496.2;" xml:space="preserve">
<style type="text/css">
	.st0{fill:#DFCDF0;}
	.st1{fill:#D69E61;}
	.st2{fill:#B78445;}
	.st3{fill:#D1985E;}
	.st4{fill:#443F3B;}
	.st5{fill:#C4AB90;}
</style>
<path class="st0" d="M496.2,248.1C496.2,111.1,385.1,0,248.1,0S0,111.1,0,248.1s111.1,248.1,248.1,248.1S496.2,385.1,496.2,248.1z"
	/>
<rect x="201.1" y="227.4" class="st1" width="74.4" height="58.8"/>
<path class="st2" d="M333.4,161.5c-13.9-0.1-87.9-0.2-87.9,22.1l12.8,125.2c0,0,6.4,8,16.9,9.6c9.7,1.5,22.1,4,57.8,4
	s48.9-2.5,58.6-4c10.4-1.6,16.9-9.6,16.9-9.6l12.8-125.2C421.2,161.3,347.3,161.4,333.4,161.5z"/>
<path class="st3" d="M333.4,161.5c-12-0.1-68.9-0.2-84.1,14.2C246.9,178,267.2,186,333,186s87.2-7.4,85.3-9.5
	C404.4,161.3,345.6,161.4,333.4,161.5z"/>
<g>
	<path class="st4" d="M431.1,188c0-9.6-12.8-11.6-12.8-11.6s-27.9,9.6-85.7,9.6s-83.9-9.6-83.9-9.6s-12.8,2-12.8,11.6
		c0,0-2.8,14.4,13.2,17.7c0,0,29.3,6.8,83.5,6.8s85.3-6.8,85.3-6.8C433.3,202.4,431.1,188,431.1,188z"/>
	<path class="st4" d="M332.9,307.8c-40.2,0-54.2-2.8-65-4.5c-4.1-0.6-7.6-2.1-10.5-3.8l0.9,9.3c0,0,6.4,8,16.9,9.6
		c9.7,1.5,22.1,4,57.8,4s48.9-2.5,58.6-4c10.4-1.6,16.9-9.6,16.9-9.6l1-9.3c-2.9,1.7-6.4,3.2-10.5,3.8
		C388,305,373.1,307.8,332.9,307.8z"/>
	<path class="st4" d="M380.3,207.6c0,0,15.2,22.5,20.9,22.5c5.6,0,14.4-24.1,14.4-24.1L380.3,207.6z"/>
	<path class="st4" d="M287,207.6c0,0-15.2,22.5-20.9,22.5c-5.6,0-14.4-24.1-14.4-24.1L287,207.6z"/>
</g>
<g>
	<path class="st5" d="M395.8,329.9L395.8,329.9c-1.4,0-2.4-1.1-2.4-2.5l1.1-56.7c0-0.2,0-0.5,0.1-0.7l9.9-31.9l-6.1-16.9
		c-0.5-1.2,0.2-2.6,1.4-3.1c1.2-0.5,2.6,0.2,3.1,1.4l6.4,17.7c0.2,0.5,0.2,1,0,1.5l-10,32.4l-1.1,56.4
		C398.2,328.8,397.1,329.9,395.8,329.9z"/>
	<path class="st5" d="M272.2,329.9c-1.3,0-2.4-1-2.4-2.4l-1.1-56.4l-10.1-32.3c-0.2-0.5-0.1-1,0-1.5l6.4-17.7
		c0.5-1.2,1.8-1.9,3.1-1.4c1.3,0.5,1.9,1.8,1.4,3.1l-6.1,16.9l9.9,31.9c0.1,0.2,0.1,0.4,0.1,0.7l1.1,56.7
		C274.7,328.7,273.6,329.8,272.2,329.9C272.3,329.9,272.3,329.9,272.2,329.9z"/>
</g>
<g>
	<path class="st4" d="M400,330.6c0,2.3-1.9,4.1-4.1,4.1l0,0c-2.3,0-4.1-1.9-4.1-4.1v-5.4h8.3L400,330.6L400,330.6z"/>
	<path class="st4" d="M276.4,330.6c0,2.3-1.9,4.1-4.1,4.1l0,0c-2.3,0-4.1-1.9-4.1-4.1v-5.4h8.3L276.4,330.6L276.4,330.6z"/>
</g>
<path class="st2" d="M145.1,161.5c-11.4-0.1-72-0.2-72,22.1l10.5,125.2c0,0,5.3,8,13.8,9.6c7.9,1.5,18.1,4,47.3,4
	c29.3,0,40.1-2.5,48-4c8.5-1.6,13.8-9.6,13.8-9.6l10.6-125.2C217.1,161.3,156.5,161.4,145.1,161.5z"/>
<path class="st3" d="M145.1,161.5c-9.8-0.1-56.5-0.2-68.9,14.2c-2,2.3,14.7,10.3,68.6,10.3s71.5-7.4,69.9-9.5
	C203.2,161.3,155.1,161.4,145.1,161.5z"/>
<g>
	<path class="st4" d="M225.1,188c0-9.6-10.5-11.6-10.5-11.6s-22.9,9.6-70.2,9.6s-68.7-9.6-68.7-9.6s-10.5,2-10.5,11.6
		c0,0-2.3,14.4,10.8,17.7c0,0,24,6.8,68.4,6.8s69.9-6.8,69.9-6.8C226.9,202.4,225.1,188,225.1,188z"/>
	<path class="st4" d="M144.7,307.8c-32.9,0-44.4-2.8-53.3-4.5c-3.3-0.6-6.2-2.1-8.6-3.8l0.8,9.3c0,0,5.3,8,13.8,9.6
		c7.9,1.5,18.1,4,47.3,4c29.3,0,40.1-2.5,48-4c8.5-1.6,13.8-9.6,13.8-9.6l0.8-9.3c-2.4,1.7-5.2,3.2-8.6,3.8
		C189.8,305,177.6,307.8,144.7,307.8z"/>
	<path class="st4" d="M183.5,207.6c0,0,12.5,22.5,17.1,22.5s11.8-24.1,11.8-24.1L183.5,207.6z"/>
	<path class="st4" d="M107,207.6c0,0-12.5,22.5-17.1,22.5S78.1,206,78.1,206L107,207.6z"/>
</g>
<g>
	<path class="st5" d="M194.7,329.9C194.7,329.9,194.6,329.9,194.7,329.9c-1.4,0-2.4-1.1-2.4-2.5l1.1-56.7c0-0.2,0-0.5,0.1-0.7
		l9.9-31.9l-6.1-16.9c-0.5-1.2,0.2-2.6,1.4-3.1s2.6,0.2,3.1,1.4l6.4,17.7c0.2,0.5,0.2,1,0,1.5l-10.1,32.4l-1.1,56.4
		C197.1,328.8,196,329.9,194.7,329.9z"/>
	<path class="st5" d="M95.7,329.9c-1.3,0-2.4-1-2.4-2.4l-1.1-56.4l-10.1-32.3c-0.2-0.5-0.1-1,0-1.5l6.4-17.7
		c0.5-1.2,1.8-1.9,3.1-1.4c1.2,0.5,1.9,1.8,1.4,3.1l-6.1,16.9l9.9,31.9c0.1,0.2,0.1,0.4,0.1,0.7l1.1,56.7
		C98.1,328.7,97.1,329.8,95.7,329.9L95.7,329.9z"/>
</g>
<g>
	<path class="st4" d="M198.8,330.6c0,2.3-1.9,4.1-4.1,4.1l0,0c-2.3,0-4.1-1.9-4.1-4.1v-5.4h8.3L198.8,330.6L198.8,330.6z"/>
	<path class="st4" d="M99.9,330.6c0,2.3-1.9,4.1-4.1,4.1l0,0c-2.3,0-4.1-1.9-4.1-4.1v-5.4h8.3v5.4H99.9z"/>
</g>
</svg>
