<?xml version="1.0" encoding="iso-8859-1"?>
<!-- Generator: Adobe Illustrator 19.0.0, SVG Export Plug-In . SVG Version: 6.00 Build 0)  -->
<svg version="1.1" id="Layer_1" xmlns="http://www.w3.org/2000/svg" xmlns:xlink="http://www.w3.org/1999/xlink" x="0px" y="0px"
	 viewBox="0 0 496.2 496.2" style="enable-background:new 0 0 496.2 496.2;" xml:space="preserve">
<path style="fill:#32BEA6;" d="M496.2,248.1C496.2,111.1,385.1,0,248.1,0S0,111.1,0,248.1s111.1,248.1,248.1,248.1
	S496.2,385.1,496.2,248.1z"/>
<path style="fill:#59351D;" d="M305.5,381l-12.9-41.8l-4.9-78.6h-79.5l-4.9,78.6L190.4,381c-4.8,34.7,54.5,35,57.6,35
	C251.1,416,310.3,415.7,305.5,381z"/>
<path style="fill:#683D25;" d="M304.2,376.9c-16.3,16.2-53.7,16.4-56.3,16.4s-40-0.2-56.3-16.4l-1.3,4.2c-4.8,34.7,54.5,35,57.6,35
	c3.1,0,62.4-0.3,57.6-35L304.2,376.9z"/>
<g>
	<path style="fill:#3F2516;" d="M247.9,343c-2,0-27.9-0.1-44.3-9.8l-0.3,4.7c16.4,9.8,42.6,10,44.6,10s28.2-0.1,44.6-10l-0.3-4.7
		C275.8,342.8,250,343,247.9,343z"/>
	<path style="fill:#3F2516;" d="M291.6,322.5l-0.3-4.8c-16.5,9.1-41.4,9.3-43.3,9.3c-2,0-26.9-0.1-43.3-9.3l-0.3,4.8
		c16.5,9.3,41.6,9.4,43.6,9.4C250,331.9,275.1,331.8,291.6,322.5z"/>
</g>
<path style="fill:#683D25;" d="M290.3,302.4l-1.2-18.6c-16.4,8-39.3,8.2-41.2,8.2s-24.8-0.1-41.2-8.2l-1.2,18.6
	c16.5,8.6,40.4,8.8,42.4,8.7C249.9,311.2,273.9,311.1,290.3,302.4z"/>
<path style="fill:#3F2516;" d="M290,297.1l-1.2-18.6c-16.4,7.9-39,8-40.9,8s-24.5-0.1-40.9-8l-1.2,18.6c16.5,8.4,40.1,8.6,42,8.6
	C249.9,305.7,273.5,305.5,290,297.1z"/>
<path style="fill:#663E22;" d="M353.4,112.7c0,54.6-20.1,124.2-66.1,149.7c-11.4,6.3-24.4,7.8-39.2,7.8c-15.3,0-28.8-1.8-40.5-8.6
	c-45.1-26.1-64.8-94.9-64.8-148.9c0,0,47.1,16,105.3,16C306.3,128.7,353.4,112.7,353.4,112.7z"/>
<path style="fill:#F2C9A5;" d="M353.4,112.7c0-4.9-0.1-9.3-1.4-13.1c-4.5-12.9-23.5-19.5-103.9-19.5c-78.1,0-98.3,6.6-103.5,18.7
	c-1.7,4-1.8,8.7-1.8,13.9c0,0,47.1,16,105.3,16S353.4,112.7,353.4,112.7z"/>
<path style="fill:#E5B786;" d="M345.2,91.2c-11-7.3-36.8-11-97.1-11c-61.5,0-87.1,4.1-97.7,11.7c-2.9,2.1,39.6,16.5,97.7,16.5
	C306.3,108.4,348.9,93.6,345.2,91.2z"/>
<path style="fill:#F2C9A5;" d="M248.1,115.2c-52.2,0-95.4-12.8-103.8-15.5c-1.4,3.8-1.5,8.2-1.5,13c0,0,47.1,16,105.3,16
	s105.3-16,105.3-16c0-4.9-0.1-9.2-1.4-13.1C343.8,102.2,300.4,115.2,248.1,115.2z"/>
<path style="fill:#8E5935;" d="M353.3,106.6c-0.2-2.5-0.5-4.8-1.3-7c-8.2,2.6-51.6,15.5-103.9,15.5c-52.2,0-95.4-12.8-103.8-15.5
	c-0.8,2.1-1.2,4.5-1.3,6.9c3,1,48.9,15.9,105.2,15.9C304.4,122.5,350.4,107.6,353.3,106.6z"/>
<g>
	<path style="fill:#CB6454;" d="M217.1,266c9.4,3.3,19.7,4.2,31,4.2c12,0,22.9-1,32.7-4.8c-10.9,2.2-22.9,3.5-34.4,3.5
		C236.4,268.9,226.6,267.9,217.1,266z"/>
	<path style="fill:#CB6454;" d="M203.4,259c1.4,0.9,2.8,1.8,4.3,2.6c3,1.8,6.2,3.2,9.5,4.3c9.5,2,19.3,3,29.3,3
		c11.5,0,23.5-1.3,34.4-3.5c2.2-0.9,4.4-1.9,6.5-3c1.9-1,3.7-2.2,5.5-3.4c-13.4,4.2-30.4,6.7-46.4,6.7
		C231.5,265.7,217,263.4,203.4,259z"/>
	<path style="fill:#CB6454;" d="M307.3,247.1c-20.8,7-42.7,11-60.7,11c-22.5,0-43.2-6-57.9-11.2c1.8,1.9,3.8,3.6,5.7,5.3
		c14.3,4.6,32.5,9.1,52.2,9.1c16.4,0,36.1-3.3,55.1-9C303.7,250.6,305.5,248.9,307.3,247.1z"/>
	<path style="fill:#CB6454;" d="M353.4,111.7c-31,7.5-70.7,15.9-107.3,15.9c-37.6,0-72.4-8.5-103.3-16.4c0,0.5,0,1,0,1.6
		s0,1.2,0,1.8c30.9,7.9,65.6,16.3,103.3,16.3c36.6,0,76.2-8.3,107.3-15.9c0-0.8,0-1.5,0-2.3C353.4,112.4,353.4,112,353.4,111.7z"/>
	<path style="fill:#CB6454;" d="M279.9,257.3c-0.1,0-0.1,0-0.2,0c-0.8-0.1-1.3-0.8-1.2-1.6l19.2-131.4c0.1-0.8,0.8-1.3,1.6-1.2
		c0.8,0.1,1.3,0.8,1.2,1.6l-19.2,131.4C281.2,256.8,280.6,257.3,279.9,257.3z"/>
	<path style="fill:#CB6454;" d="M296.5,253.7C296.5,253.7,296.4,253.7,296.5,253.7c-0.8,0-1.4-0.6-1.4-1.4l2.5-127.6
		c0-0.8,0.6-1.4,1.4-1.4l0,0c0.8,0,1.4,0.6,1.4,1.4l-2.5,127.6C297.8,253.1,297.2,253.7,296.5,253.7z"/>
	<path style="fill:#CB6454;" d="M259.9,259h-0.1c-0.7-0.1-1.1-0.8-1.1-1.5l14-129.7c0.1-0.8,0.7-1.3,1.5-1.2s1.3,0.8,1.2,1.5
		L261,257.8C261,258.5,260.5,259,259.9,259z"/>
	<path style="fill:#CB6454;" d="M279.9,257.3c-0.7,0-1.3-0.6-1.4-1.3l-5.4-127.9c0-0.8,0.6-1.4,1.3-1.4c0.7,0,1.4,0.6,1.4,1.3
		l5.4,127.9C281.3,256.6,280.7,257.3,279.9,257.3L279.9,257.3z"/>
	<path style="fill:#CB6454;" d="M350.2,113.2c-0.7-0.2-1.5,0.2-1.7,0.9v0.1c0.9-0.3,1.6-0.5,2.3-0.7
		C350.6,113.4,350.4,113.3,350.2,113.2z"/>
	<path style="fill:#CB6454;" d="M351.1,114.9c0.1-0.5,0-1-0.4-1.4c-0.7,0.2-1.4,0.4-2.3,0.7l-37.3,128.9c1.5-1.7,3-3.4,4.4-5.2
		L351.1,114.9z"/>
	<path style="fill:#CB6454;" d="M350.3,113.2c-0.7-0.1-1.4,0.3-1.6,1c0.8-0.2,1.6-0.5,2.2-0.7C350.8,113.3,350.6,113.2,350.3,113.2z
		"/>
	<path style="fill:#CB6454;" d="M351.4,114.8c0.1-0.5-0.1-1-0.5-1.3c-0.6,0.2-1.4,0.4-2.2,0.7v0.1l-18.3,100.2
		c1.6-3.2,3.1-6.4,4.6-9.7L351.4,114.8z"/>
	<path style="fill:#CB6454;" d="M296.3,252.6c-0.1,0-0.2,0-0.3,0c-0.7-0.2-1.2-0.9-1.1-1.6l28.5-131.6c0.2-0.7,0.9-1.2,1.6-1.1
		c0.7,0.2,1.2,0.9,1.1,1.6l-28.5,131.6C297.5,252.2,296.9,252.6,296.3,252.6z"/>
	<path style="fill:#CB6454;" d="M326.4,119.8c0.1-0.8-0.5-1.4-1.2-1.5c-0.8-0.1-1.4,0.5-1.5,1.2l-0.1,1c1-0.2,1.9-0.4,2.8-0.6
		L326.4,119.8z"/>
	<path style="fill:#CB6454;" d="M326.4,119.9c-0.9,0.2-1.9,0.4-2.8,0.6l-12.2,122.2c1.1-1.2,2.1-2.4,3.1-3.7L326.4,119.9z"/>
	<path style="fill:#CB6454;" d="M237.4,259.5h-0.1c-0.7-0.1-1.1-0.8-1.1-1.5l11-128.7c0.1-0.8,0.8-1.3,1.5-1.2
		c0.8,0.1,1.3,0.8,1.2,1.5l-11.4,128.7C238.5,259,238,259.5,237.4,259.5z"/>
	<path style="fill:#CB6454;" d="M260,259.3c-0.6,0-1.1-0.5-1.2-1.2l-11.5-128.5c-0.1-0.8,0.5-1.4,1.2-1.5c0.7-0.1,1.4,0.5,1.5,1.2
		l11.2,128.5c0.1,0.8-0.4,1.4-1.1,1.5H260z"/>
	<path style="fill:#CB6454;" d="M217.4,258.2C217.4,258.2,217.3,258.2,217.4,258.2c-0.8,0-1.4-0.7-1.4-1.4l5.9-128.6
		c0-0.8,0.6-1.3,1.4-1.3c0.8,0,1.4,0.7,1.3,1.4l-5.9,128.6C218.7,257.7,218.1,258.2,217.4,258.2z"/>
	<path style="fill:#CB6454;" d="M237.6,260.4c-0.6,0-1.1-0.5-1.2-1.2l-14.6-130.8c-0.1-0.8,0.5-1.4,1.2-1.5c0.8-0.1,1.4,0.5,1.5,1.2
		l14.2,130.8C238.8,259.7,238.3,260.3,237.6,260.4C237.7,260.4,237.7,260.4,237.6,260.4z"/>
	<path style="fill:#CB6454;" d="M201.2,253.9c-0.8,0-1.4-0.6-1.4-1.4l-3.1-127.1c0-0.8,0.6-1.4,1.4-1.4l0,0c0.7,0,1.4,0.6,1.4,1.4
		l3.1,127.1C202.6,253.3,202,253.9,201.2,253.9L201.2,253.9z"/>
	<path style="fill:#CB6454;" d="M217.8,258.2c-0.7,0-1.3-0.5-1.4-1.2l-19.7-131.9c-0.1-0.8,0.4-1.5,1.2-1.6s1.5,0.4,1.6,1.2
		l19.7,131.9c0.1,0.8-0.4,1.5-1.2,1.6C217.9,258.2,217.9,258.2,217.8,258.2z"/>
	<path style="fill:#CB6454;" d="M173.7,120.4c-0.1-0.8-0.7-1.3-1.5-1.2c-0.6,0.1-1,0.5-1.2,1c0.9,0.2,1.8,0.4,2.7,0.6V120.4z"/>
	<path style="fill:#CB6454;" d="M171,120.1c-0.1,0.2-0.1,0.3-0.1,0.5l11.5,119.3c1,1.2,2.1,2.4,3.1,3.6l-11.8-122.9
		C172.8,120.5,171.9,120.3,171,120.1z"/>
	<path style="fill:#CB6454;" d="M201,252.6c-0.6,0-1.2-0.4-1.3-1.1L171,120.8c-0.2-0.7,0.3-1.5,1.1-1.6c0.8-0.2,1.5,0.3,1.6,1.1
		L202.4,251c0.2,0.7-0.3,1.5-1.1,1.6C201.2,252.6,201.1,252.6,201,252.6z"/>
	<path style="fill:#CB6454;" d="M147.8,113.8c-0.1-0.8-0.9-1.2-1.6-1.1c-0.4,0.1-0.8,0.4-1,0.8c0.7,0.2,1.6,0.5,2.7,0.8L147.8,113.8
		z"/>
	<path style="fill:#CB6454;" d="M145.2,113.5c-0.1,0.3-0.2,0.6-0.1,0.9l16.7,91.8c1.4,3.2,2.9,6.3,4.5,9.4l-18.4-101.2
		C146.9,114,146,113.7,145.2,113.5z"/>
	<path style="fill:#CB6454;" d="M148.1,113.7c-0.2-0.7-1-1.2-1.7-0.9c-0.4,0.1-0.7,0.4-0.9,0.8c0.8,0.2,1.7,0.5,2.8,0.8L148.1,113.7
		z"/>
	<path style="fill:#CB6454;" d="M145.5,113.6c-0.1,0.3-0.2,0.6-0.1,0.9l35.9,124.1c1.4,1.7,2.9,3.4,4.3,5.1l-37.4-129.3
		C147.2,114.1,146.2,113.8,145.5,113.6z"/>
</g>
<g>
</g>
<g>
</g>
<g>
</g>
<g>
</g>
<g>
</g>
<g>
</g>
<g>
</g>
<g>
</g>
<g>
</g>
<g>
</g>
<g>
</g>
<g>
</g>
<g>
</g>
<g>
</g>
<g>
</g>
</svg>
