<?xml version="1.0" encoding="utf-8"?>
<!-- Generator: Adobe Illustrator 24.1.2, SVG Export Plug-In . SVG Version: 6.00 Build 0)  -->
<svg version="1.1" id="Layer_1" xmlns="http://www.w3.org/2000/svg" xmlns:xlink="http://www.w3.org/1999/xlink" x="0px" y="0px"
	 viewBox="0 0 496.2 496.2" style="enable-background:new 0 0 496.2 496.2;" xml:space="preserve">
<style type="text/css">
	.st0{fill:#BED0C5;}
	.st1{fill:#CE925D;}
	.st2{fill:#D6A172;}
	.st3{fill:#EAB38B;}
	.st4{fill:#C18456;}
	.st5{fill:#A56A42;}
	.st6{fill:#020200;}
	.st7{fill:#633C1F;}
	.st8{fill:#96603B;}
</style>
<path class="st0" d="M496.1,248.1C496.1,111.1,385,0,248,0S0,111.1,0,248.1s111.1,248.1,248.1,248.1S496.1,385.1,496.1,248.1z"/>
<g>
	<path class="st1" d="M226.4,263.2l3.9,232.3c5.9,0.4,11.8,0.6,17.8,0.6s12-0.2,17.9-0.6l3.9-232.3H226.4L226.4,263.2z"/>
	<path class="st1" d="M227.9,267.6h40.6c0,0,0.8-0.2,1.4,0l0.1-4.3h-43.5l0.1,4.3C227.1,267.3,227.9,267.6,227.9,267.6z"/>
</g>
<path class="st2" d="M268.5,267.6h-40.6c0,0-0.8-0.2-1.4,0v2.5c0.7,0.1,9.4,1.2,21.4,1.2c11.9,0,21.1-1.1,21.9-1.2v-2.5
	C269.2,267.3,268.5,267.6,268.5,267.6z"/>
<path class="st1" d="M276.2,225.5c-2.7-9.6-3.4-24.6-3.9-34s4.4-85.8,4.4-85.8h-57.2c0,0,5,76.4,4.4,85.8s-1.2,24.4-3.9,34
	c0,0-6.9,18.1,6.4,42.5c0,0,9,1.2,21.4,1.2c12.4,0,22-1.2,22-1.2C283.1,243.6,276.2,225.5,276.2,225.5z"/>
<path class="st3" d="M230.6,261.4c0,0-14.5-12.6-1.2-44.6L230.6,261.4z"/>
<path class="st1" d="M275.2,42.4c-6.4-13.3-8.7-14.6-24.9-14.7l0,0c-0.8,0-4.5,0-4.5,0c-16.2,0.1-18.5,1.4-24.9,14.7
	c-12.8,26.6-1.3,64-1.3,64l26.2,5.5v0.9l2.2-0.5l2.2,0.5v-0.9l26.2-5.5C276.5,106.3,288,68.9,275.2,42.4z"/>
<path class="st4" d="M260.5,145.4l-2.3-30.3h-9.4h-0.2h-9.4l-2.3,30.3c0,0,0.9,7.5,11.7,7.6l0,0h0.1h0.1l0,0
	C259.6,152.9,260.5,145.4,260.5,145.4z"/>
<g>
	<polygon class="st5" points="260.5,145.4 258.2,115.1 247.6,115.1 	"/>
	<polygon class="st5" points="249.9,115.1 239.2,115.1 236.9,145.4 	"/>
</g>
<polygon class="st6" points="258.4,116.5 239.1,116.5 238.6,123.1 258.9,123.1 "/>
<g>
	<circle class="st7" cx="248.1" cy="310.5" r="5"/>
	<circle class="st7" cx="248.1" cy="354" r="5"/>
	<circle class="st7" cx="248.1" cy="391.5" r="5"/>
	<circle class="st7" cx="248.1" cy="434.2" r="5"/>
	<circle class="st7" cx="248.1" cy="480.9" r="3.7"/>
</g>
<polygon class="st8" points="248.9,115.1 248.6,115.1 239.2,115.1 239.1,116.6 258.4,116.6 258.2,115.1 "/>
</svg>
