<?xml version="1.0" encoding="iso-8859-1"?>
<!-- Generator: Adobe Illustrator 19.0.0, SVG Export Plug-In . SVG Version: 6.00 Build 0)  -->
<svg version="1.1" id="Layer_1" xmlns="http://www.w3.org/2000/svg" xmlns:xlink="http://www.w3.org/1999/xlink" x="0px" y="0px"
	 viewBox="0 0 496.2 496.2" style="enable-background:new 0 0 496.2 496.2;" xml:space="preserve">
<path style="fill:#25B7D3;" d="M496.15,248.1c0-137-111.1-248.1-248.1-248.1c-137,0-248,111.1-248,248.1s111.1,248.1,248.1,248.1
	S496.15,385.1,496.15,248.1z"/>
<g>
	<path style="fill:#CE925D;" d="M226.35,263.2l3.9,232.3c5.9,0.4,11.8,0.6,17.8,0.6s12-0.2,17.9-0.6l3.9-232.3L226.35,263.2
		L226.35,263.2z"/>
	<path style="fill:#CE925D;" d="M227.85,267.6h40.6c0,0,0.8-0.2,1.4,0l0.1-4.3h-43.5l0.1,4.3
		C227.05,267.3,227.85,267.6,227.85,267.6z"/>
</g>
<path style="fill:#D6A172;" d="M268.45,267.6h-40.6c0,0-0.8-0.2-1.4,0v2.5c0.7,0.1,9.4,1.2,21.4,1.2c11.9,0,21.1-1.1,21.9-1.2v-2.5
	C269.25,267.3,268.45,267.6,268.45,267.6z"/>
<path style="fill:#CE925D;" d="M276.25,225.5c-2.7-9.6-3.4-24.6-3.9-34s4.4-85.8,4.4-85.8h-57.2c0,0,5,76.4,4.4,85.8
	s-1.2,24.4-3.9,34c0,0-6.9,18.1,6.4,42.5c0,0,9,1.2,21.4,1.2c12.4,0,22-1.2,22-1.2C283.15,243.6,276.25,225.5,276.25,225.5z"/>
<path style="fill:#EAB38B;" d="M230.55,261.4c0,0-14.5-12.6-1.2-44.6L230.55,261.4z"/>
<path style="fill:#CE925D;" d="M275.25,42.4c-6.4-13.3-8.7-14.6-24.9-14.7l0,0c-0.8,0-4.5,0-4.5,0c-16.2,0.1-18.5,1.4-24.9,14.7
	c-12.8,26.6-1.3,64-1.3,64l26.2,5.5v0.9l2.2-0.5l2.2,0.5v-0.9l26.2-5.5C276.55,106.3,288.05,68.9,275.25,42.4z"/>
<path style="fill:#C18456;" d="M260.55,145.4l-2.3-30.3h-9.4h-0.2h-9.4l-2.3,30.3c0,0,0.9,7.5,11.7,7.6l0,0h0.1h0.1l0,0
	C259.65,152.9,260.55,145.4,260.55,145.4z"/>
<g>
	<polygon style="fill:#A56A42;" points="260.55,145.4 258.25,115.1 247.55,115.1 	"/>
	<polygon style="fill:#A56A42;" points="249.95,115.1 239.25,115.1 236.95,145.4 	"/>
</g>
<polygon style="fill:#020200;" points="258.35,116.5 239.15,116.5 238.65,123.1 258.85,123.1 "/>
<g>
	<circle style="fill:#633C1F;" cx="248.05" cy="310.5" r="5"/>
	<circle style="fill:#633C1F;" cx="248.05" cy="354" r="5"/>
	<circle style="fill:#633C1F;" cx="248.05" cy="391.5" r="5"/>
	<circle style="fill:#633C1F;" cx="248.05" cy="434.2" r="5"/>
	<circle style="fill:#633C1F;" cx="248.05" cy="480.9" r="3.7"/>
</g>
<polygon style="fill:#96603B;" points="248.85,115.1 248.65,115.1 239.25,115.1 239.15,116.6 258.35,116.6 258.25,115.1 "/>
<g>
</g>
<g>
</g>
<g>
</g>
<g>
</g>
<g>
</g>
<g>
</g>
<g>
</g>
<g>
</g>
<g>
</g>
<g>
</g>
<g>
</g>
<g>
</g>
<g>
</g>
<g>
</g>
<g>
</g>
</svg>
