<?xml version="1.0" encoding="utf-8"?>
<!-- Generator: Adobe Illustrator 24.1.2, SVG Export Plug-In . SVG Version: 6.00 Build 0)  -->
<svg version="1.1" id="Layer_1" xmlns="http://www.w3.org/2000/svg" xmlns:xlink="http://www.w3.org/1999/xlink" x="0px" y="0px"
	 viewBox="0 0 496.2 496.2" style="enable-background:new 0 0 496.2 496.2;" xml:space="preserve">
<style type="text/css">
	.st0{fill:#9BB8D2;}
	.st1{fill:#334D5C;}
	.st2{fill:#387A9B;}
	.st3{fill:#A03317;}
	.st4{fill:#E5AA17;}
	.st5{fill:#FFFFFF;}
	.st6{fill:#B54215;}
</style>
<path class="st0" d="M496.2,248.1C496.2,111.1,385.1,0,248.1,0S0,111.1,0,248.1s111.1,248.1,248.1,248.1S496.2,385.1,496.2,248.1z"
	/>
<path class="st1" d="M147.4,120.4L147.4,120.4c0,0-0.1,0-0.1,0.1c0,0-0.1,0-0.1,0.1l0,0c-24,14.3-37.2,52.9-2,95.9
	c15.9,19.5,46.9,35,51.1,36.7c3.8,1.6,10.9,4.5,17.5,12c5.2,6,19.4,21.8,34.5,47.4c15,25.5,24.2,45,34.2,65.1
	c4.2,8.5,12,21.5,24.6,14.3l0,0c0,0,0.1,0,0.1-0.1c0,0,0.1,0,0.1-0.1l0,0c12.5-7.5,4.9-20.6-0.5-28.4c-12.7-18.5-25.3-36-40.4-61.5
	c-15-25.5-22-45.7-24.7-53.1c-3.4-9.4-2.5-17-2-21.1c0.5-4.5,2-39.1-7.4-62.5C211.7,113.5,171.5,106.4,147.4,120.4z"/>
<path class="st2" d="M241.6,248.7c-3.4-9.4-2.5-17-2-21.1c0.3-2.5,0.8-14-0.2-27.7c-9.9,7.5-20.6,15.1-30.9,21.2
	c-11,6.5-24.1,12.8-36.6,18.2c11.6,7.7,22.1,12.9,24.4,13.8c3.8,1.6,10.9,4.5,17.5,12c1,1.1,2.2,2.5,3.7,4.3l26.2-15.4
	C242.7,251.9,242.1,250.1,241.6,248.7z"/>
<path class="st3" d="M217.4,269.5c6.7,7.8,18.5,22.2,30.8,43.1c15,25.5,24.2,45,34.2,65.1c4.2,8.5,12,21.5,24.6,14.3l0,0
	c0,0,0.1,0,0.1-0.1c0,0,0.1,0,0.1-0.1l0,0c12.5-7.5,4.9-20.6-0.5-28.4c-12.7-18.5-25.3-36-40.4-61.5c-12.3-20.9-19.2-38.1-22.8-47.8
	L217.4,269.5z"/>
<path class="st4" d="M193.8,119.4c-16.5-7.9-33.7-6.4-46.5,1.1l0,0c0,0-0.1,0-0.1,0.1c0,0-0.1,0-0.1,0.1l0,0
	c-12.6,7.5-22.3,21.8-23.4,39.9c11.5-5.5,24.4-12.1,37.3-19.7C173.1,133.6,184.2,126.2,193.8,119.4z"/>
<path class="st2" d="M209.8,130.4c-1.3-1.2-2.7-2.4-4-3.5c-10.8,7.8-23.7,16.5-38.1,25c-15.3,9-30.3,16.6-43.2,22.6
	c0.3,1.7,0.7,3.5,1.1,5.2c13.2-6.1,28.9-13.9,44.7-23.2C185.4,147.7,198.8,138.5,209.8,130.4z"/>
<path class="st1" d="M237.5,184.9c-1.2-6.8-2.9-13.7-5.3-19.7c-3.9-9.9-8.6-18.1-13.7-24.9c-11.4,8.4-25.5,18.1-41.5,27.5
	c-16.8,9.9-33.3,18.1-47.1,24.4c3.5,7.8,8.4,16,15.2,24.3c4.1,5,9.1,9.7,14.4,14c14.1-6,29.7-13.1,42.2-20.5
	C213.6,202.9,226.3,193.6,237.5,184.9z"/>
<g>
	<path class="st5" d="M205.7,126.9c-3.9-3.1-7.9-5.6-11.9-7.5c-9.6,6.8-20.7,14.2-32.8,21.3c-12.9,7.6-25.8,14.2-37.3,19.7
		c-0.3,4.5-0.1,9.2,0.8,14.1c12.9-6,27.9-13.6,43.2-22.6C182.1,143.4,195,134.7,205.7,126.9z"/>
	<path class="st5" d="M218.5,140.2c-2.8-3.7-5.7-6.9-8.7-9.8c-11,8.1-24.4,17.2-39.4,26.1c-15.8,9.3-31.5,17.1-44.7,23.2
		c1,4,2.4,8.2,4.3,12.4c13.7-6.3,30.2-14.5,47.1-24.4C193,158.3,207.1,148.6,218.5,140.2z"/>
	<path class="st5" d="M239.3,200c-0.4-4.9-1-10-1.8-15.1c-11.1,8.8-23.8,18-35.7,25c-12.5,7.4-28.1,14.6-42.2,20.5
		c4,3.2,8.2,6.2,12.3,8.9c12.5-5.5,25.5-11.7,36.6-18.2C218.7,215.1,229.4,207.5,239.3,200z"/>
	<path class="st5" d="M214.2,265.8c2,2.3,5,5.7,8.7,10.2c4.7-2.4,9.3-4.9,13.5-7.4c3.4-2,6.9-4.2,10.3-6.5
		c-2.2-5.4-3.7-9.7-4.7-12.5c-4.1,2.8-8.2,5.4-12.2,7.7C224.9,260.2,219.6,263,214.2,265.8z"/>
</g>
<path class="st1" d="M348.8,120.4L348.8,120.4c0,0,0.1,0,0.1,0.1c0,0,0.1,0,0.1,0.1l0,0c24,14.3,37.2,52.9,2,95.9
	c-15.9,19.5-46.9,35-51.1,36.7c-3.8,1.6-10.9,4.5-17.5,12c-5.2,6-19.4,21.8-34.5,47.4c-15,25.5-24.2,45-34.2,65.1
	c-4.2,8.5-12,21.5-24.6,14.3l0,0c0,0-0.1,0-0.1-0.1c0,0-0.1,0-0.1-0.1l0,0c-12.5-7.5-4.9-20.6,0.5-28.4c12.7-18.5,25.3-36,40.4-61.5
	c15-25.5,22-45.7,24.7-53.1c3.4-9.4,2.5-17,2-21.1c-0.5-4.5-2-39.1,7.4-62.5C284.5,113.5,324.7,106.4,348.8,120.4z"/>
<path class="st2" d="M254.6,248.7c3.4-9.4,2.5-17,2-21.1c-0.3-2.5-0.8-14,0.2-27.7c9.9,7.5,20.6,15.1,30.9,21.2
	c11,6.5,24.1,12.8,36.6,18.2c-11.6,7.7-22.1,12.9-24.4,13.8c-3.8,1.6-10.9,4.5-17.5,12c-1,1.1-2.2,2.5-3.7,4.3l-26-15.3
	C253.5,251.9,254.1,250.1,254.6,248.7z"/>
<path class="st6" d="M278.8,269.5c-6.7,7.8-18.5,22.2-30.8,43.1c-15,25.5-24.2,45-34.2,65.1c-4.2,8.5-12,21.5-24.6,14.3l0,0
	c0,0-0.1,0-0.1-0.1c0,0-0.1,0-0.1-0.1l0,0c-12.5-7.5-4.9-20.6,0.5-28.4c12.7-18.5,25.3-36,40.4-61.5c12.3-20.9,19.2-38.1,22.8-47.8
	L278.8,269.5z"/>
<path class="st4" d="M302.4,119.4c16.5-7.9,33.7-6.4,46.5,1.1l0,0c0,0,0.1,0,0.1,0.1c0,0,0.1,0,0.1,0.1l0,0
	c12.6,7.5,22.3,21.8,23.4,39.9c-11.5-5.5-24.4-12.1-37.3-19.7C323.1,133.6,312,126.2,302.4,119.4z"/>
<path class="st2" d="M286.4,130.4c1.3-1.2,2.7-2.4,4-3.5c10.8,7.8,23.7,16.5,38.1,25c15.3,9,30.3,16.6,43.2,22.6
	c-0.3,1.7-0.7,3.5-1.1,5.2c-13.2-6.1-28.9-13.9-44.7-23.2C310.8,147.7,297.4,138.5,286.4,130.4z"/>
<path class="st1" d="M258.7,184.9c1.2-6.8,2.9-13.7,5.3-19.7c3.9-9.9,8.6-18.1,13.7-24.9c11.4,8.4,25.5,18.1,41.5,27.5
	c16.8,9.9,33.3,18.1,47.1,24.4c-3.5,7.8-8.4,16-15.2,24.3c-4.1,5-9.1,9.7-14.4,14c-14.1-6-29.7-13.1-42.2-20.5
	C282.6,202.9,269.9,193.6,258.7,184.9z"/>
<g>
	<path class="st5" d="M290.5,126.9c3.9-3.1,7.9-5.6,11.9-7.5c9.6,6.8,20.7,14.2,32.8,21.3c12.9,7.6,25.8,14.2,37.3,19.7
		c0.3,4.5,0.1,9.2-0.8,14.1c-12.9-6-27.9-13.6-43.2-22.6C314.1,143.4,301.2,134.7,290.5,126.9z"/>
	<path class="st5" d="M277.7,140.2c2.8-3.7,5.7-6.9,8.7-9.8c11,8.1,24.4,17.2,39.4,26.1c15.8,9.3,31.5,17.1,44.7,23.2
		c-1,4-2.4,8.2-4.3,12.4c-13.7-6.3-30.2-14.5-47.1-24.4C303.2,158.3,289.1,148.6,277.7,140.2z"/>
	<path class="st5" d="M256.9,200c0.4-4.9,1-10,1.8-15.1c11.1,8.8,23.8,18,35.7,25c12.5,7.4,28.1,14.6,42.2,20.5
		c-4,3.2-8.2,6.2-12.3,8.9c-12.5-5.5-25.5-11.7-36.6-18.2C277.5,215.1,266.8,207.5,256.9,200z"/>
	<path class="st5" d="M282,265.8c-2,2.3-5,5.7-8.7,10.2c-4.7-2.4-9.3-4.9-13.5-7.4c-3.4-2-6.9-4.2-10.3-6.5
		c2.2-5.4,3.7-9.7,4.7-12.5c4.1,2.8,8.2,5.4,12.2,7.7C271.3,260.2,276.6,263,282,265.8z"/>
</g>
</svg>
