<?xml version="1.0" encoding="utf-8"?>
<!-- Generator: Adobe Illustrator 24.1.2, SVG Export Plug-In . SVG Version: 6.00 Build 0)  -->
<svg version="1.1" id="Layer_1" xmlns="http://www.w3.org/2000/svg" xmlns:xlink="http://www.w3.org/1999/xlink" x="0px" y="0px"
	 viewBox="0 0 496.2 496.2" style="enable-background:new 0 0 496.2 496.2;" xml:space="preserve">
<style type="text/css">
	.st0{fill:#FEDAC3;}
	.st1{fill:#F2F1DF;}
	.st2{fill:#3A3A38;}
	.st3{fill:#565656;}
	.st4{fill:#282828;}
	.st5{fill:#444443;}
</style>
<path class="st0" d="M496.2,248.1C496.2,111.1,385.1,0,248.1,0S0,111.1,0,248.1s111.1,248.1,248.1,248.1S496.2,385.1,496.2,248.1z"
	/>
<g>
	<rect x="288.7" y="172.7" class="st1" width="38.1" height="150.8"/>
	<rect x="249" y="172.7" class="st1" width="38.1" height="150.8"/>
	<rect x="209.3" y="172.7" class="st1" width="38.1" height="150.8"/>
	<rect x="169.6" y="172.7" class="st1" width="38.1" height="150.8"/>
</g>
<rect x="238.2" y="172.8" class="st2" width="20.1" height="100"/>
<rect x="238.2" y="172.8" class="st3" width="4.3" height="100"/>
<polygon class="st4" points="241.9,268.8 254.5,268.8 258.3,272.8 238.2,272.8 "/>
<rect x="242" y="172.8" class="st5" width="12.4" height="96"/>
<rect x="198.3" y="172.8" class="st2" width="20.1" height="100"/>
<rect x="198.3" y="172.8" class="st3" width="4.3" height="100"/>
<polygon class="st4" points="202.1,268.8 214.7,268.8 218.5,272.8 198.3,272.8 "/>
<rect x="202.2" y="172.8" class="st5" width="12.4" height="96"/>
<rect x="278" y="172.8" class="st2" width="20.1" height="100"/>
<rect x="278" y="172.8" class="st3" width="4.3" height="100"/>
<polygon class="st4" points="281.7,268.8 294.3,268.8 298.1,272.8 278,272.8 "/>
<rect x="281.8" y="172.8" class="st5" width="12.4" height="96"/>
<g>
	<rect x="129.9" y="172.7" class="st1" width="38.1" height="150.8"/>
	<rect x="90.2" y="172.7" class="st1" width="38.1" height="150.8"/>
	<rect x="50.5" y="172.7" class="st1" width="38.1" height="150.8"/>
</g>
<rect x="79.4" y="172.8" class="st2" width="20.1" height="100"/>
<rect x="79.4" y="172.8" class="st3" width="4.3" height="100"/>
<polygon class="st4" points="83.1,268.8 95.7,268.8 99.5,272.8 79.4,272.8 "/>
<rect x="83.2" y="172.8" class="st5" width="12.4" height="96"/>
<rect x="119.2" y="172.8" class="st2" width="20.1" height="100"/>
<rect x="119.2" y="172.8" class="st3" width="4.3" height="100"/>
<polygon class="st4" points="123,268.8 135.5,268.8 139.3,272.8 119.2,272.8 "/>
<rect x="123" y="172.8" class="st5" width="12.4" height="96"/>
<g>
	<rect x="407.6" y="172.7" class="st1" width="38.1" height="150.8"/>
	<rect x="367.9" y="172.7" class="st1" width="38.1" height="150.8"/>
	<rect x="328.2" y="172.7" class="st1" width="38.1" height="150.8"/>
</g>
<rect x="357.1" y="172.8" class="st2" width="20.1" height="100"/>
<rect x="357.1" y="172.8" class="st3" width="4.3" height="100"/>
<polygon class="st4" points="360.8,268.8 373.4,268.8 377.2,272.8 357.1,272.8 "/>
<rect x="360.9" y="172.8" class="st5" width="12.4" height="96"/>
<rect x="396.9" y="172.8" class="st2" width="20.1" height="100"/>
<rect x="396.9" y="172.8" class="st3" width="4.3" height="100"/>
<polygon class="st4" points="400.7,268.8 413.2,268.8 417,272.8 396.9,272.8 "/>
<rect x="400.7" y="172.8" class="st5" width="12.4" height="96"/>
</svg>
