<?xml version="1.0" encoding="utf-8"?>
<!-- Generator: Adobe Illustrator 24.1.2, SVG Export Plug-In . SVG Version: 6.00 Build 0)  -->
<svg version="1.1" id="Layer_1" xmlns="http://www.w3.org/2000/svg" xmlns:xlink="http://www.w3.org/1999/xlink" x="0px" y="0px"
	 viewBox="0 0 496.2 496.2" style="enable-background:new 0 0 496.2 496.2;" xml:space="preserve">
<style type="text/css">
	.st0{fill:#FD9BA3;}
	.st1{fill:#A7DCBD;}
	.st2{fill:#878787;}
	.st3{fill:#707070;}
	.st4{fill:#ADADAC;}
	.st5{fill:#3A3A38;}
	.st6{fill:#545454;}
	.st7{fill:#727270;}
	.st8{fill:#DFA17C;}
	.st9{fill:#6E4832;}
	.st10{fill:#644B44;}
	.st11{fill:#EDE691;}
	.st12{fill:#C48769;}
	.st13{fill:#EA4949;}
</style>
<path class="st0" d="M496.2,248.1C496.2,111.1,385.1,0,248.1,0S0,111.1,0,248.1s111.1,248.1,248.1,248.1S496.2,385.1,496.2,248.1z"
	/>
<path class="st1" d="M397.2,109c-0.9-3.4-2.6-6.8-5-9.6c-2.3-2.8-5-5-7.5-7l-0.6-0.5c-1.1-0.8-2-1.6-3-2.5s-2.1-1.9-3.1-3.1
	c-1.9-2.1-3.7-4.5-5.4-7.1c-0.8-1.3-1.6-2.6-2.3-3.9c-0.4-0.7-0.7-1.3-1-2c-0.4-0.8-0.7-1.4-0.9-1.9l0,0c0-0.1-0.1-0.1-0.1-0.2
	c-0.8-1.6-2.4-2.6-4.2-2.4c-0.5,0-1,0.2-1.5,0.4c-1,0.5-1.8,1.3-2.2,2.4c-0.1,0.3-0.2,0.7-0.2,1c-0.1,0.3-0.1,0.7-0.1,1.1l5.5,67.7
	c-5.6-3.3-13.8-3.9-21.6-0.8c-11.9,4.6-18.7,15.7-15.2,24.7s16,12.5,27.9,7.9c10.1-3.9,16.5-12.5,16.1-20.4l0,0l-5.4-67.2
	c1.7,2.2,3.5,4.2,5.3,6c1.3,1.3,2.6,2.4,3.9,3.4c1.1,0.9,2.2,1.7,3.3,2.4l0.7,0.5c2.4,1.7,4.8,3.5,6.9,5.7c2,2.1,3.4,4.5,4.2,7
	c0.8,2.5,1.1,5.3,0.9,8.5c-0.2,2.7-0.6,5.7-1.5,8.9c-0.8,2.8-1.7,5.7-3,8.8c-0.4,1.1,0.1,2.3,1.1,2.7c0.3,0.1,0.7,0.2,1,0.2
	c0.7-0.1,1.4-0.5,1.8-1.2c1.5-3.2,2.7-6.2,3.7-9.2c1.2-3.5,1.9-6.8,2.2-9.9C398.2,115.7,398,112.2,397.2,109z"/>
<path class="st2" d="M332.4,256.7c-11.5-11.2-10.8-26.5-1-36.6s25.1-11.2,36.6,0c14.2,13.9,14.9,30.5,5.1,40.6
	S346.6,270.5,332.4,256.7z"/>
<g>
	<circle class="st3" cx="334.5" cy="223.1" r="1.7"/>
	<circle class="st3" cx="330.6" cy="227.1" r="1.7"/>
	<circle class="st3" cx="334.7" cy="238.9" r="1.7"/>
	<circle class="st3" cx="342.5" cy="230.9" r="1.7"/>
	<circle class="st3" cx="330.8" cy="242.9" r="1.7"/>
	<circle class="st3" cx="338.6" cy="234.9" r="1.7"/>
	<circle class="st3" cx="330.8" cy="235.1" r="1.7"/>
	<circle class="st3" cx="338.6" cy="227.1" r="1.7"/>
	<circle class="st3" cx="334.7" cy="231.1" r="1.7"/>
	<circle class="st3" cx="338.4" cy="219.1" r="1.7"/>
	<circle class="st3" cx="350.3" cy="222.9" r="1.7"/>
	<circle class="st3" cx="346.4" cy="226.9" r="1.7"/>
	<circle class="st3" cx="354.2" cy="218.9" r="1.7"/>
	<circle class="st3" cx="346.4" cy="219.1" r="1.7"/>
	<circle class="st3" cx="342.5" cy="223.1" r="1.7"/>
	<circle class="st3" cx="336.7" cy="244.7" r="1.7"/>
	<circle class="st3" cx="344.5" cy="236.7" r="1.7"/>
	<circle class="st3" cx="332.8" cy="248.7" r="1.7"/>
	<circle class="st3" cx="340.6" cy="240.7" r="1.7"/>
	<circle class="st3" cx="352.3" cy="228.7" r="1.7"/>
	<circle class="st3" cx="360.1" cy="220.7" r="1.7"/>
	<circle class="st3" cx="348.4" cy="232.7" r="1.7"/>
	<circle class="st3" cx="356.2" cy="224.7" r="1.7"/>
	<circle class="st3" cx="339.7" cy="259.3" r="1.7"/>
	<circle class="st3" cx="347.5" cy="251.3" r="1.7"/>
	<circle class="st3" cx="355.3" cy="243.3" r="1.7"/>
	<circle class="st3" cx="343.5" cy="255.3" r="1.7"/>
	<circle class="st3" cx="351.3" cy="247.3" r="1.7"/>
	<circle class="st3" cx="363" cy="235.3" r="1.7"/>
	<circle class="st3" cx="370.8" cy="227.3" r="1.7"/>
	<circle class="st3" cx="359.1" cy="239.3" r="1.7"/>
	<circle class="st3" cx="366.9" cy="231.3" r="1.7"/>
	<circle class="st3" cx="349.5" cy="257.2" r="1.7"/>
	<circle class="st3" cx="357.3" cy="249.1" r="1.7"/>
	<circle class="st3" cx="345.6" cy="261.2" r="1.7"/>
	<circle class="st3" cx="353.4" cy="253.2" r="1.7"/>
	<circle class="st3" cx="365.1" cy="241.1" r="1.7"/>
	<circle class="st3" cx="372.9" cy="233.1" r="1.7"/>
	<circle class="st3" cx="361.2" cy="245.2" r="1.7"/>
	<circle class="st3" cx="369" cy="237.2" r="1.7"/>
	<circle class="st3" cx="355.1" cy="258.8" r="1.7"/>
	<circle class="st3" cx="362.9" cy="250.8" r="1.7"/>
	<circle class="st3" cx="351.2" cy="262.8" r="1.7"/>
	<circle class="st3" cx="359" cy="254.8" r="1.7"/>
	<circle class="st3" cx="370.7" cy="242.8" r="1.7"/>
	<circle class="st3" cx="366.8" cy="246.8" r="1.7"/>
	<circle class="st3" cx="374.6" cy="238.8" r="1.7"/>
</g>
<g>
	<path class="st4" d="M379.1,238.6c-3.4,4.4-8,10-13.6,15.8c-5.1,5.3-10.1,9.6-14.1,12.9c2.8,0.5,5.5,0.6,8.1,0.3
		c3.1-2.7,6.4-5.8,9.9-9.4c3.9-4,7.3-7.9,10.2-11.5C379.9,244.1,379.7,241.4,379.1,238.6z"/>
	<path class="st4" d="M369.7,221.8c-0.5-0.6-1.1-1.1-1.7-1.7c-0.7-0.7-1.5-1.4-2.3-2c-3.3,4.7-9.1,12.3-16.8,20.2
		c-7.2,7.4-14,12.9-18.5,16.3c0.6,0.7,1.3,1.4,2,2.1c0.6,0.6,1.2,1.2,1.9,1.7c4.6-3.5,11.3-9,18.5-16.4
		C360.4,234.1,366.2,226.6,369.7,221.8z"/>
</g>
<path class="st5" d="M379.6,243.7c0,0-2.8,6.1-10,13.6c-7.3,7.5-13.3,10.4-13.3,10.4l85.6,74l0,0c1.1,1,5.1-1.3,9-5.3
	c3.8-4,6.1-8,5-9.1l0,0L379.6,243.7z"/>
<path class="st6" d="M369.6,257.3c-7.3,7.5-13.3,10.4-13.3,10.4l85.6,74l0,0c1.1,1,5.1-1.3,9-5.3L369.6,257.3z"/>
<circle class="st5" cx="381.2" cy="268.5" r="4.6"/>
<circle class="st7" cx="381.2" cy="268.5" r="3"/>
<path class="st8" d="M150.8,299.5c8.4-7.9,13.6-37.1,13.6-37.1c-18.2-25-40.9-46.3-41.7-93.7c-0.7-47.4,52.9-68.1,52.9-68.1
	c46.1-19.7,83.3,15.8,83.3,15.8c5.8,7.4,11.1,20.1,14.8,30.8c1.2,3.3,0.9,7.6,1.4,8.8c1.1,2.7,4.3,9.5,4.3,9.5
	c6.8,12.9,19.7,18.9,19.7,18.9c13.6,6.1,3.4,16.7,3.4,16.7c-1.4,2.4-0.9,5-0.7,5.4l-0.5,25.3c-2,1.2-2.2,6.3-2.2,6.3
	c1.5,25.7-25.7,25.7-25.7,25.7c-34.6-3.1-42.7,10.7-46.9,15.1c-15.3,15.9-21.2,59-21.2,59s-19.5-5-31.5-13.6
	C161.7,316,150.8,299.5,150.8,299.5z"/>
<path class="st9" d="M269.6,152.6c0,0-16.2-3-23.4-1c-2.9,0.8-8.3,8.4-8.3,8.4s7.5-2.9,10.3-3.8c2.8-0.9,21.9-1.1,21.9-1.1
	S272.6,153.6,269.6,152.6z"/>
<path class="st10" d="M271.7,164.1c0,0-1,4.4-4.8,7.2c-4,3.1-11.1,4.5-18.7-1.4c0,0,10.5-0.9,15.7-2
	C269,166.7,271.7,164.1,271.7,164.1z"/>
<path class="st11" d="M274.7,138.8c-7.4,1.1-35.6-4.1-56.3,7.9c-10.3,6-20.3,14.5-28,26.4c-11.2,17.6-17,39.3-17.2,60.5
	c-0.3,21.2-9.7,31.2-9.7,31.2s-86.4-87.2-20.8-146.6c21.1-19.1,89-52.8,131.5,12.4C275,131.9,276.6,138.5,274.7,138.8z"/>
<g>
	<path class="st8" d="M296.7,215.8c0,0,3.8-9,5.6-8.7c1.9,0.3,4.8-0.6,5.6,5.7c0.3,2.2-2.3,4.6-2.6,6.6c-0.3,2.2,3.3,4.9,1.1,10.4
		c0,0-1.9,4.3-9.2,1C297.3,230.9,295.1,219.4,296.7,215.8z"/>
	<ellipse transform="matrix(0.9436 -0.331 0.331 0.9436 -56.977 69.6454)" class="st8" cx="176" cy="202.1" rx="14.1" ry="17.7"/>
</g>
<path class="st11" d="M154.2,111c0,0-43.5-57.1-89.3-11.2c-13,13-25,29.3-18.4,62.6c0,0,12.3,41.2-6.5,54.3c0,0,37.5,4.6,39.8-23.9
	c1.4-17.7,15.6-76.3,53.9-57.5L154.2,111z"/>
<path class="st8" d="M432.7,300c0,0,9.8-15.3,5-17.6c-4.8-2.3-5.5-1.1-8.9,3.3c0,0,5.1-8.1,0.7-11.1c-2.6-1.8-5.4-4.7-12.1,5
	c0,0,7.8-8.5,2.1-12.5c-5-3.6-7.1-2.4-10.2,2.2c0,0,3.8-5.2-0.4-8.1c-6.1-4.2-9.4-0.1-13.1,5.6c-8.6,13.3-15.8,20.1-14.6,28.9
	c0,0-3.4,23.5-15.7,57.3c0,0-7.7,37.1,34.6,12.5c0,0,5.2-11.7,10.3-18C422.1,332.9,429.4,314.2,432.7,300z"/>
<g>
	<polygon class="st12" points="400.1,282.1 410,268.3 400.7,282.4 	"/>
	<polygon class="st12" points="410.3,289 419.8,276.6 411,289.3 	"/>
	<polygon class="st12" points="421,296.2 429.4,285 421.7,296.6 	"/>
</g>
<path class="st13" d="M365.5,353l-88.9,104.2L218.9,344l0,0c-16.8-38.9-80.6-50.3-80.6-50.3c-20.4-0.8-67.8,64.1-91.5,99.4
	c31.1,43.2,75.8,75.9,127.8,92c6.6-11.7,14.8-27,22.7-43.5l49.1,54.6c0.6,0,1.1,0,1.7,0c24.2,0,47.6-3.5,69.7-9.9l82.3-120.8
	C377.8,373.1,365.5,353,365.5,353z"/>
</svg>
