<?xml version="1.0" encoding="iso-8859-1"?>
<!-- Generator: Adobe Illustrator 19.0.0, SVG Export Plug-In . SVG Version: 6.00 Build 0)  -->
<svg version="1.1" id="Layer_1" xmlns="http://www.w3.org/2000/svg" xmlns:xlink="http://www.w3.org/1999/xlink" x="0px" y="0px"
	 viewBox="0 0 496.2 496.2" style="enable-background:new 0 0 496.2 496.2;" xml:space="preserve">
<path style="fill:#25B7D3;" d="M496.2,248.1C496.2,111.1,385.1,0,248.1,0S0,111.1,0,248.1s111.1,248.1,248.1,248.1
	S496.2,385.1,496.2,248.1z"/>
<path style="fill:#161412;" d="M267.6,101.1h-27.8c0,0,4.2,15.3,6.4,14.8c48.7,12.5,85.4,66.9,85.4,132.2s-36.7,119.7-85.4,132.2
	c-2.2-0.6-6.4,14.8-6.4,14.8h27.8c64.2,0,116.3-65.8,116.3-147C383.8,166.9,331.8,101.1,267.6,101.1z"/>
<path style="fill:#4F453F;" d="M267.6,101.1c-6.6,0-32.3,0-38.9,0c-64.2,0-116.3,65.8-116.3,147s52.1,147,116.3,147
	c6.6,0,32.3,0,38.9,0c64.2,0,116.3-65.8,116.3-147C383.8,166.9,331.8,101.1,267.6,101.1z M267.6,383c-58.9,0-106.7-60.4-106.7-134.9
	s47.8-134.9,106.7-134.9s106.7,60.4,106.7,134.9S326.5,383,267.6,383z"/>
<path style="fill:#6D5E57;" d="M267.6,101.1c-62,0-117.8,65.8-117.8,147s49.8,147,117.8,147c64.2,0,116.3-65.8,116.3-147
	C383.8,166.9,329.5,101.1,267.6,101.1z M267.6,383c-58.9,0-106.7-60.4-106.7-134.9s47.8-134.9,106.7-134.9s106.7,60.4,106.7,134.9
	S326.5,383,267.6,383z"/>
<ellipse style="fill:#A3D5E0;" cx="136.2" cy="248.1" rx="10.5" ry="23.8"/>
<path style="fill:#E5AA17;" d="M144.4,233.2c-5.7-0.6-10.4-0.7-12-0.7c-1.2,0-2.7,0.1-4.2,0.4c-4.8,1-10.1,4.4-10.1,15.2
	c0,10.8,5.3,14.2,10.1,15.2c1.5,0.3,3,0.4,4.2,0.4c1.6,0,6.2-0.1,12-0.7c1.4-4.1,2.3-9.3,2.3-14.9S145.8,237.3,144.4,233.2z"/>
<ellipse transform="matrix(0.5778 -0.8162 0.8162 0.5778 -52.5162 196.3097)" style="fill:#A3D5E0;" cx="163.488" cy="148.915" rx="23.8" ry="10.5"/>
<path style="fill:#E5AA17;" d="M178.7,141.4c-4.4-3.8-8.1-6.6-9.4-7.5c-1-0.7-2.3-1.5-3.7-2.1c-4.5-1.9-10.7-2.2-17,6.6
	c-6.2,8.8-3.9,14.6-0.6,18.2c1.1,1.1,2.2,2.1,3.2,2.8c1.3,0.9,5.2,3.5,10.2,6.3c3.5-2.5,7.2-6.2,10.5-10.8
	C175.3,150.3,177.6,145.6,178.7,141.4z"/>
<ellipse transform="matrix(-0.5778 -0.8162 0.8162 -0.5778 -27.6419 685.5038)" style="fill:#A3D5E0;" cx="163.484" cy="349.901" rx="23.8" ry="10.5"/>
<path style="fill:#E5AA17;" d="M178.7,357.4c-4.4,3.8-8.1,6.6-9.4,7.5c-1,0.7-2.3,1.5-3.7,2.1c-4.5,1.9-10.7,2.2-17-6.6
	c-6.2-8.8-3.9-14.6-0.6-18.2c1.1-1.1,2.2-2.1,3.2-2.8c1.3-0.9,5.2-3.5,10.2-6.3c3.5,2.5,7.2,6.2,10.5,10.8
	C175.3,348.5,177.6,353.2,178.7,357.4z"/>
<ellipse style="fill:#A3D5E0;" cx="352.5" cy="248.1" rx="10.5" ry="23.8"/>
<path style="fill:#C69017;" d="M360.6,233.2c-5.7-0.6-10.4-0.7-12-0.7c-1.2,0-2.7,0.1-4.2,0.4c-4.8,1-10.1,4.4-10.1,15.2
	c0,10.8,5.3,14.2,10.1,15.2c1.5,0.3,3,0.4,4.2,0.4c1.6,0,6.2-0.1,12-0.7c1.4-4.1,2.3-9.3,2.3-14.9S362.1,237.3,360.6,233.2z"/>
<ellipse transform="matrix(0.5778 -0.8162 0.8162 0.5778 -152.238 404.3347)" style="fill:#A3D5E0;" cx="314.696" cy="349.315" rx="23.8" ry="10.5"/>
<path style="fill:#C69017;" d="M330,341.9c-4.4-3.8-8.1-6.6-9.4-7.5c-1-0.7-2.3-1.5-3.7-2.1c-4.5-1.9-10.8-2.2-17,6.6
	c-6.2,8.8-3.9,14.6-0.6,18.2c1.1,1.1,2.2,2.1,3.2,2.8c1.3,0.9,5.2,3.5,10.2,6.3c3.5-2.5,7.2-6.2,10.5-10.8S328.8,346,330,341.9z"/>
<ellipse transform="matrix(-0.5778 -0.8162 0.8162 -0.5778 376.4211 493.7579)" style="fill:#A3D5E0;" cx="315.92" cy="149.518" rx="23.8" ry="10.5"/>
<path style="fill:#C69017;" d="M331.2,156.9c-4.4,3.8-8.1,6.6-9.4,7.5c-1,0.7-2.3,1.5-3.7,2.1c-4.5,1.9-10.8,2.2-17-6.6
	s-3.9-14.6-0.6-18.2c1.1-1.1,2.2-2.1,3.2-2.8c1.3-0.9,5.2-3.5,10.2-6.3c3.5,2.5,7.2,6.2,10.5,10.8C327.7,148,330,152.8,331.2,156.9z
	"/>
<g>
</g>
<g>
</g>
<g>
</g>
<g>
</g>
<g>
</g>
<g>
</g>
<g>
</g>
<g>
</g>
<g>
</g>
<g>
</g>
<g>
</g>
<g>
</g>
<g>
</g>
<g>
</g>
<g>
</g>
</svg>
