<?xml version="1.0" encoding="utf-8"?>
<!-- Generator: Adobe Illustrator 24.1.2, SVG Export Plug-In . SVG Version: 6.00 Build 0)  -->
<svg version="1.1" id="Layer_1" xmlns="http://www.w3.org/2000/svg" xmlns:xlink="http://www.w3.org/1999/xlink" x="0px" y="0px"
	 viewBox="0 0 496.2 496.2" style="enable-background:new 0 0 496.2 496.2;" xml:space="preserve">
<style type="text/css">
	.st0{fill:#9BB8D2;}
	.st1{fill:#161412;}
	.st2{fill:#4F453F;}
	.st3{fill:#6D5E57;}
	.st4{fill:#A3D5E0;}
	.st5{fill:#E5AA17;}
	.st6{fill:#C69017;}
</style>
<path class="st0" d="M496.2,248.1C496.2,111.1,385.1,0,248.1,0S0,111.1,0,248.1s111.1,248.1,248.1,248.1S496.2,385.1,496.2,248.1z"
	/>
<path class="st1" d="M267.6,101.1h-27.8c0,0,4.2,15.3,6.4,14.8c48.7,12.5,85.4,66.9,85.4,132.2s-36.7,119.7-85.4,132.2
	c-2.2-0.6-6.4,14.8-6.4,14.8h27.8c64.2,0,116.3-65.8,116.3-147C383.8,166.9,331.8,101.1,267.6,101.1z"/>
<path class="st2" d="M267.6,101.1c-6.6,0-32.3,0-38.9,0c-64.2,0-116.3,65.8-116.3,147s52.1,147,116.3,147c6.6,0,32.3,0,38.9,0
	c64.2,0,116.3-65.8,116.3-147C383.8,166.9,331.8,101.1,267.6,101.1z M267.6,383c-58.9,0-106.7-60.4-106.7-134.9
	s47.8-134.9,106.7-134.9s106.7,60.4,106.7,134.9S326.5,383,267.6,383z"/>
<path class="st3" d="M267.6,101.1c-62,0-117.8,65.8-117.8,147s49.8,147,117.8,147c64.2,0,116.3-65.8,116.3-147
	C383.8,166.9,329.5,101.1,267.6,101.1z M267.6,383c-58.9,0-106.7-60.4-106.7-134.9s47.8-134.9,106.7-134.9s106.7,60.4,106.7,134.9
	S326.5,383,267.6,383z"/>
<ellipse class="st4" cx="136.2" cy="248.1" rx="10.5" ry="23.8"/>
<path class="st5" d="M144.4,233.2c-5.7-0.6-10.4-0.7-12-0.7c-1.2,0-2.7,0.1-4.2,0.4c-4.8,1-10.1,4.4-10.1,15.2s5.3,14.2,10.1,15.2
	c1.5,0.3,3,0.4,4.2,0.4c1.6,0,6.2-0.1,12-0.7c1.4-4.1,2.3-9.3,2.3-14.9S145.8,237.3,144.4,233.2z"/>
<ellipse transform="matrix(0.5778 -0.8162 0.8162 0.5778 -52.5135 196.3124)" class="st4" cx="163.5" cy="148.9" rx="23.8" ry="10.5"/>
<path class="st5" d="M178.7,141.4c-4.4-3.8-8.1-6.6-9.4-7.5c-1-0.7-2.3-1.5-3.7-2.1c-4.5-1.9-10.7-2.2-17,6.6
	c-6.2,8.8-3.9,14.6-0.6,18.2c1.1,1.1,2.2,2.1,3.2,2.8c1.3,0.9,5.2,3.5,10.2,6.3c3.5-2.5,7.2-6.2,10.5-10.8
	C175.3,150.3,177.6,145.6,178.7,141.4z"/>
<ellipse transform="matrix(0.8162 -0.5778 0.5778 0.8162 -172.1148 158.7765)" class="st4" cx="163.5" cy="349.9" rx="10.5" ry="23.8"/>
<path class="st5" d="M178.7,357.4c-4.4,3.8-8.1,6.6-9.4,7.5c-1,0.7-2.3,1.5-3.7,2.1c-4.5,1.9-10.7,2.2-17-6.6
	c-6.2-8.8-3.9-14.6-0.6-18.2c1.1-1.1,2.2-2.1,3.2-2.8c1.3-0.9,5.2-3.5,10.2-6.3c3.5,2.5,7.2,6.2,10.5,10.8
	C175.3,348.5,177.6,353.2,178.7,357.4z"/>
<ellipse class="st4" cx="352.5" cy="248.1" rx="10.5" ry="23.8"/>
<path class="st6" d="M360.6,233.2c-5.7-0.6-10.4-0.7-12-0.7c-1.2,0-2.7,0.1-4.2,0.4c-4.8,1-10.1,4.4-10.1,15.2s5.3,14.2,10.1,15.2
	c1.5,0.3,3,0.4,4.2,0.4c1.6,0,6.2-0.1,12-0.7c1.4-4.1,2.3-9.3,2.3-14.9S362.1,237.3,360.6,233.2z"/>
<ellipse transform="matrix(0.5778 -0.8162 0.8162 0.5778 -152.2337 404.341)" class="st4" cx="314.7" cy="349.3" rx="23.8" ry="10.5"/>
<path class="st6" d="M330,341.9c-4.4-3.8-8.1-6.6-9.4-7.5c-1-0.7-2.3-1.5-3.7-2.1c-4.5-1.9-10.8-2.2-17,6.6
	c-6.2,8.8-3.9,14.6-0.6,18.2c1.1,1.1,2.2,2.1,3.2,2.8c1.3,0.9,5.2,3.5,10.2,6.3c3.5-2.5,7.2-6.2,10.5-10.8S328.8,346,330,341.9z"/>
<ellipse transform="matrix(0.8162 -0.5778 0.5778 0.8162 -28.3163 210.0174)" class="st4" cx="315.9" cy="149.5" rx="10.5" ry="23.8"/>
<path class="st6" d="M331.2,156.9c-4.4,3.8-8.1,6.6-9.4,7.5c-1,0.7-2.3,1.5-3.7,2.1c-4.5,1.9-10.8,2.2-17-6.6s-3.9-14.6-0.6-18.2
	c1.1-1.1,2.2-2.1,3.2-2.8c1.3-0.9,5.2-3.5,10.2-6.3c3.5,2.5,7.2,6.2,10.5,10.8S330,152.8,331.2,156.9z"/>
</svg>
