<?xml version="1.0" encoding="utf-8"?>
<!-- Generator: Adobe Illustrator 24.1.2, SVG Export Plug-In . SVG Version: 6.00 Build 0)  -->
<svg version="1.1" id="Layer_1" xmlns="http://www.w3.org/2000/svg" xmlns:xlink="http://www.w3.org/1999/xlink" x="0px" y="0px"
	 viewBox="0 0 496.2 496.2" style="enable-background:new 0 0 496.2 496.2;" xml:space="preserve">
<style type="text/css">
	.st0{fill:#9BB8D2;}
	.st1{fill:#E5AA17;}
	.st2{fill:#C7D8E0;}
	.st3{fill:#E8C377;}
</style>
<path class="st0" d="M496.2,248.1C496.2,111.1,385.1,0,248.1,0S0,111.1,0,248.1s111.1,248.1,248.1,248.1S496.2,385.1,496.2,248.1z"
	/>
<path class="st1" d="M368.6,342.4H118.1c-1.9,0-3.6-1-4.5-2.6s-0.9-3.6,0.1-5.2l132.5-222.3c0.9-1.5,2.6-2.5,4.4-2.5
	s3.5,0.9,4.4,2.5l125.5,204.1c1.5,2.4,0.7,5.6-1.7,7.1c-2.4,1.5-5.6,0.7-7.1-1.7l-121-196.9L127.2,332.1h241.5
	c2.8,0,5.1,2.3,5.1,5.1S371.5,342.4,368.6,342.4z"/>
<path class="st2" d="M254.6,131.3c-1.4,2.3-2.9,3.6-4.2,3.6c-3.7,0-9-10.4-9-26.6s5.3-26.6,9-26.6s9,10.4,9,26.6
	c0,3.7-0.3,7-0.8,10.1l4.4,7.2c1.4-5.3,2.2-11.3,2.2-17.2c0-15.8-5.2-32.5-14.9-32.5s-14.9,16.8-14.9,32.5
	c0,15.8,5.2,32.5,14.9,32.5c2.9,0,5.4-1.5,7.5-4.1L254.6,131.3z"/>
<path class="st3" d="M136.7,381.4c-0.8-0.2-1.6-0.7-2.2-1.4c-1.4-1.8-1.2-4.3,0.6-5.8L406,151.6c1.7-1.4,4.3-1.2,5.8,0.6
	c1.4,1.7,1.2,4.3-0.6,5.8l-271,222.6C139.2,381.4,137.9,381.7,136.7,381.4z"/>
<g>
	<path class="st1" d="M249.7,109.9c-1.3,0.2-2.5,1-3.3,2.1C247.5,111.3,248.6,110.6,249.7,109.9z"/>
	<path class="st1" d="M380.5,316.4L273.1,141.7c-3.1,1.5-6.3,2.9-9.4,4.4l108,175.6c1.5,2.4,4.7,3.2,7.1,1.7
		C381.2,322,382,318.8,380.5,316.4z"/>
</g>
</svg>
