<?xml version="1.0" encoding="utf-8"?>
<!-- Generator: Adobe Illustrator 24.1.2, SVG Export Plug-In . SVG Version: 6.00 Build 0)  -->
<svg version="1.1" id="Layer_1" xmlns="http://www.w3.org/2000/svg" xmlns:xlink="http://www.w3.org/1999/xlink" x="0px" y="0px"
	 viewBox="0 0 496.2 496.2" style="enable-background:new 0 0 496.2 496.2;" xml:space="preserve">
<style type="text/css">
	.st0{fill:#BED0C5;}
	.st1{fill:#EDC92F;}
	.st2{fill:#F2D65F;}
	.st3{fill:#CCA915;}
	.st4{fill:#E5C74A;}
</style>
<path class="st0" d="M496.2,248.1C496.2,111.1,385.1,0,248.1,0S0,111.1,0,248.1s111.1,248.1,248.1,248.1S496.2,385.1,496.2,248.1z"
	/>
<g>
	<path class="st1" d="M138.1,214.1c12.8-0.5,242.3-5.1,256.3-5.1c23.9,0,43.5-27.5,55.1-27.5s11.6,88.4,0,88.4s-31.2-27.4-55.1-27.4
		c-14,0-266.3-4.7-266.3-4.7l-12.4-3.8l-54.9,0.1c0,0-24.9,20.5-22.7-8.1c-2.1-28.3,22.7-7.9,22.7-7.9l54.9-0.1
		C115.7,217.9,125.3,214.6,138.1,214.1z"/>
	<path class="st1" d="M254.2,192.3c0,4.6-3.4,3-3.4,4.8l0,0v11.5c0.9,0.8,1.5,1.9,1.7,3c-4.8,0.1-9.5,0.2-14.2,0.3
		c0.2-1.3,0.8-2.4,1.7-3.3v-11.5l0,0c0-1.7-3.4-0.3-3.4-4.8c0-1.7,1.9-2.3,2.7-2.3h12.2C252.3,190,254.2,190.6,254.2,192.3z"/>
	<path class="st1" d="M205.6,212.5c0-1.5,0.7-2.9,1.8-3.9v-11.5l0,0c0-1.7-3.4-0.3-3.4-4.8c0-1.7,1.9-2.3,2.7-2.3h12.2
		c0.8,0,2.7,0.6,2.7,2.3c0,4.6-3.4,3-3.4,4.8l0,0v11.5c1,1,1.7,2.3,1.7,3.7C215,212.4,210.2,212.5,205.6,212.5L205.6,212.5z"/>
	<path class="st1" d="M173,212.5c0-1.5,0.7-2.9,1.8-3.9v-11.5l0,0c0-1.7-3.4-0.3-3.4-4.8c0-1.7,1.9-2.3,2.7-2.3h12.2
		c0.8,0,2.7,0.6,2.7,2.3c0,4.6-3.4,3-3.4,4.8l0,0v11.5c1.1,1,1.8,2.4,1.8,3.9v0.4c-5,0.1-9.8,0.2-14.3,0.3v-0.7H173z"/>
	<path class="st1" d="M275.8,220.9c7.2,0,18.1,0,27.6,4.3c8.4,3.8,18.4,12.5,18.4,31.9v5.6c0,19.4-10,28.1-18.4,31.9
		c-9.4,4.3-20.3,4.3-27.6,4.3h-130c-7.2,0-18.1,0-27.6-4.3c-8.4-3.8-18.4-12.5-18.4-31.9v-1.8c0-13.3,2.7-21.4,6.5-26.7H59.5v-13.3
		L275.8,220.9L275.8,220.9z M308.4,257.1c0-13.4-6.1-17.7-10.6-19.7c-6.8-3.1-15.6-3.1-22-3.1h-130v3.9c-6.4,0-15.2,0-22,3.1
		c-4.6,2.1-10.6,6.4-10.6,19.7v1.8c0,13.4,6.1,17.7,10.6,19.7c6.8,3.1,15.6,3.1,22,3.1h129.9c6.4,0,15.2,0,22-3.1
		c4.6-2.1,10.6-6.4,10.6-19.7v-5.7L308.4,257.1L308.4,257.1z"/>
	<path class="st1" d="M266.8,287c-4.7,0-8.6-3.9-8.6-8.6s3.9-8.6,8.6-8.6s8.6,3.8,8.6,8.6S271.5,287,266.8,287z M266.8,272.4
		c-3.4,0-6.1,2.7-6.1,6.1s2.7,6.1,6.1,6.1s6.1-2.7,6.1-6.1C272.8,275.1,270.1,272.4,266.8,272.4z"/>
	<path class="st1" d="M158.3,287c-4.7,0-8.6-3.9-8.6-8.6v-7.7c0-0.7,0.6-1.2,1.2-1.2s1.2,0.6,1.2,1.2v7.7c0,3.4,2.7,6.1,6.1,6.1
		s6.1-2.7,6.1-6.1v-7.7c0-0.7,0.6-1.2,1.2-1.2s1.2,0.6,1.2,1.2v7.7C166.8,283.2,163,287,158.3,287z"/>
	<path class="st1" d="M260.5,205.3c0-4.7,3.9-8.6,8.6-8.6h7.7c0.7,0,1.2,0.6,1.2,1.2s-0.6,1.2-1.2,1.2h-7.7c-3.4,0-6.1,2.7-6.1,6.1
		c0,3.4,2.7,6.1,6.1,6.1h7.7c0.7,0,1.2,0.6,1.2,1.2s-0.6,1.2-1.2,1.2h-7.7C264.4,213.9,260.5,210,260.5,205.3z"/>
</g>
<path class="st2" d="M402.9,223.1h-257V221l257-2.8c14.4,0,29.6-5.5,42.1-12.8c3.6-2.1,7.2,7.6,0.2,11.1
	C434.4,221.7,414.4,223.1,402.9,223.1z"/>
<path class="st3" d="M302.8,285.7c-2,1-4.1,1.8-6.2,2.5s-4.3,1.2-6.4,1.7c-4.3,0.9-8.8,1.3-13.1,1.3c-1.1,0-2.2-0.1-3.3-0.1
	l-3.4-0.1l-6.7-0.2c-4.5-0.1-9-0.2-13.4-0.3l-6.7-0.1l-6.7-0.1l-13.4-0.2l-26.9-0.1c-9,0-17.9,0.1-26.9,0.1l-13.4,0.2l-6.7,0.1
	l-6.7,0.1c-4.4,0.1-8.8-0.1-13.1-0.8c-4.3-0.7-8.4-2-12-4.3c-1.8-1.1-3.4-2.5-4.8-4.1s-2.5-3.5-3.4-5.4c-0.9-2-1.5-4.1-2-6.3
	c-0.5-2.2-0.7-4.4-0.9-6.6h-0.3c0,4.5,0.6,9,2.2,13.2c0.8,2.1,1.9,4.1,3.3,5.8c1.4,1.8,3.1,3.3,4.9,4.6c3.7,2.6,8.1,4,12.5,4.9
	c4.4,0.8,8.9,1.1,13.4,1.1l53.7,0.1l53.7-0.1c9,0,17.9,0,26.9-0.1c4.5-0.1,9-0.8,13.3-1.8c4.4-1.1,8.6-2.6,12.5-4.9V285.7z"/>
<g>
	<path class="st1" d="M252.5,305.3L252.5,305.3c0,2.3,3,4.2,3,6.3c0,2.3-0.9,3-2,3h-16.2c-1.1,0-2-0.7-2-3c0-2.1,2.9-3.9,2.9-6.3
		l0,0v-65.4c0,0,2.3-2.5,7.1-2.5s7.2,2.7,7.2,2.7V305.3z"/>
	<path class="st1" d="M219.9,305.3L219.9,305.3c0,2.3,3,4.2,3,6.3c0,2.3-0.9,3-2,3h-16.2c-1.1,0-2-0.7-2-3c0-2.1,2.9-3.9,2.9-6.3
		l0,0v-66c0,0,2.4-1.9,6.8-1.9c4.4,0,7.4,2.1,7.4,2.1v65.8H219.9z"/>
	<path class="st1" d="M187.2,305.3L187.2,305.3c0,2.3,3,4.2,3,6.3c0,2.3-0.9,3-2,3H172c-1.1,0-2-0.7-2-3c0-2.1,2.9-3.9,2.9-6.3l0,0
		v-66.6c0,0,3-1.5,7.2-1.5s7.1,1.7,7.1,1.7V305.3z"/>
</g>
<path class="st4" d="M313.4,245l-0.3,0.1c-0.5-1.4-1.2-2.7-1.9-3.9c0.2,0,0.4,0,0.5,0C312.4,242.5,312.9,243.7,313.4,245z"/>
<path class="st2" d="M217.9,227.4h51.2h6.4c2.1,0,4.3,0,6.4,0.1c4.3,0.1,8.6,0.6,12.7,1.6s8.2,2.7,11.5,5.5c1.7,1.4,3.1,2.9,4.4,4.7
	c0.4,0.6,0.8,1.3,1.2,2c-0.2,0-0.4,0-0.5,0c-0.3-0.6-0.7-1.1-1.1-1.6c-0.6-0.8-1.3-1.6-2-2.4c-0.7-0.7-1.5-1.4-2.3-2.1
	c-3.3-2.5-7.3-4.1-11.3-4.9c-8.2-1.8-16.7-1-25.2-1l-12.8,0.2l-12.8,0.1l-25.6,0.3l-25.6,0.2c-8.5,0.1-17.1,0.1-25.6,0.1l-25.8-0.1
	h-12.8h-12.8H89.9H77.1L64.3,230l-25.6-0.2c-0.2,0-0.5,0-0.7,0c0-0.8,0-1.6,0-2.4l77.5-0.1L217.9,227.4z"/>
<g>
	<rect x="243.6" y="237.4" class="st3" width="3.9" height="65.3"/>
	<rect x="210.6" y="237.4" class="st3" width="3.9" height="65.3"/>
	<rect x="178.3" y="237.4" class="st3" width="3.9" height="65.3"/>
</g>
</svg>
