<?xml version="1.0" encoding="utf-8"?>
<!-- Generator: Adobe Illustrator 24.1.2, SVG Export Plug-In . SVG Version: 6.00 Build 0)  -->
<svg version="1.1" id="Layer_1" xmlns="http://www.w3.org/2000/svg" xmlns:xlink="http://www.w3.org/1999/xlink" x="0px" y="0px"
	 viewBox="0 0 496.2 496.2" style="enable-background:new 0 0 496.2 496.2;" xml:space="preserve">
<style type="text/css">
	.st0{fill:#C8CFE9;}
	.st1{fill:#A09393;}
	.st2{fill:#480500;}
	.st3{fill:#7C7B7B;}
	.st4{fill:#7C443A;}
	.st5{fill:#110909;}
	.st6{fill:#B54215;}
	.st7{fill:#892C10;}
	.st8{fill:#3F3533;}
	.st9{fill:#B76F18;}
	.st10{fill:#8C5315;}
	.st11{fill:#E0D7D5;}
	.st12{fill:#211917;}
	.st13{fill:#3A2F2D;}
	.st14{fill:#332826;}
	.st15{fill:#B74E13;}
	.st16{fill:#A34116;}
	.st17{fill:#A84614;}
	.st18{fill:#423938;}
	.st19{fill:#E8DEAA;}
	.st20{fill:#E2CFC9;}
	.st21{fill:#C45118;}
	.st22{fill:#B5491A;}
</style>
<path class="st0" d="M496.2,248.1C496.2,111.1,385.1,0,248.1,0S0,111.1,0,248.1s111.1,248.1,248.1,248.1S496.2,385.1,496.2,248.1z"
	/>
<rect x="8.7" y="261" transform="matrix(1.599955e-02 -0.9999 0.9999 1.599955e-02 -133.5039 387.4453)" class="st1" width="242.7" height="1.2"/>
<path class="st2" d="M120.1,384.1L120.1,384.1c-1,0-1.7-0.4-1.7-0.9c0-0.4,0.7-37.8,4-83.5s-1.8-189.6-1.8-191
	c0-0.4,0.7-0.8,1.6-0.8s1.7,0.3,1.7,0.8c0.1,1.4,5.1,145.4,1.8,191.1s-4,83.2-4.1,83.6C121.7,383.8,121,384.1,120.1,384.1z"/>
<path class="st3" d="M133.4,133.2h-2.8c-0.3,0-0.5,0.2-0.5,0.5v6.4c0,0.3,0.2,0.5,0.5,0.5h2.8c0.3,0,0.5-0.2,0.5-0.5v-6.4
	C133.8,133.4,133.6,133.2,133.4,133.2z"/>
<g>
	<path class="st2" d="M134.6,121.3c0-0.7,0-1.2-0.1-1.6c0-0.5-0.1-1.3-0.9-1.3l0,0c0,0-3.9-0.1-6.9-0.1c-1.1,0-1.9,0-2.5,0
		c-1,0-1.8,0.1-1.8,0.9v20.3c0,0.7,0.6,1.3,1.3,1.3h2.5c0.4,0,0.7-0.3,0.8-0.7l1.3-6.6h5.2c0.8,0,0.9-0.8,0.9-1.3
		c0-0.4,0.1-0.9,0.1-1.6c0-1.2,0.1-2.9,0.1-4.7S134.6,122.5,134.6,121.3z"/>
	<path class="st2" d="M118.6,382.5c0,0-0.4,3.5,1.4,4.5c2.6,1.4,7.1,3.4,6.9,4.9c-0.2,1.4,0.4,2.4,0.8,0.4s1-7.9,1-7.9s1-2.6-1-2.2
		s-5.7,1.6-5.9-1.6C121.6,377.2,118.6,382.5,118.6,382.5z"/>
</g>
<circle class="st4" cx="129" cy="125.2" r="1.8"/>
<path class="st5" d="M122.3,107.8c-0.9,0-1.7,0.4-1.6,0.8c0,0.1,0.1,1.5,0.1,3.9h3.3c-0.1-2.4-0.1-3.8-0.1-3.9
	C124,108.2,123.3,107.8,122.3,107.8z"/>
<path class="st6" d="M316.2,354.1c-2.7-7.3,0-14.4,0-14.4c-5.9,0.8-13.6-3.4-21.2-11.9s-7.6-27.4-4.2-39.8
	c3.4-12.3,19.5-15.3,19.5-15.3c-3.3-4.2-0.8-18.6-0.8-18.6c12.7-22.9,0-55.9,0-55.9c-10.7-25.2-53.1-26.3-61.3-26.3
	c-8.3,0-50.6,1.1-61.3,26.3c0,0-12.7,33.1,0,55.9c0,0,2.4,14.4-0.8,18.6c0,0,16.1,3,19.5,15.3c3.4,12.4,3.4,31.4-4.2,39.8
	c-7.6,8.5-15.3,12.7-21.2,11.9c0,0,2.7,7.1,0,14.4c-1.7,4.6-13.2,37.2-11,53.4c2,14.8,7.5,50.7,77.7,52.5v0.1c0.5,0,0.9,0,1.4,0
	s0.9,0,1.4,0V460c70.2-1.8,75.7-37.7,77.7-52.5C329.3,391.2,317.9,358.7,316.2,354.1z"/>
<path class="st7" d="M247.2,457.4L247.2,457.4c-0.2,0-0.3,0-0.4,0c-29.4-0.7-50.5-7.6-62.6-20.6c-10.1-10.7-11.7-23.1-12.6-29.7
	c-1.7-12.9,6-38.9,10.9-52.2c1.7-4.5,1.5-9,1-11.9l-0.1-0.8l0.8-0.1c5.9-1,12.4-5.3,19-12.6c8.1-9,8.5-28.5,4.8-42.2
	c-2.7-9.8-12.2-14.3-17.7-16.1l-0.7-0.2l0.2-0.7c1.2-5.7,0.2-13.5-0.3-16.6c0-0.3-0.1-0.6-0.3-0.8c-11.8-21.2-0.4-52.4,0.1-53.7
	c10-23.5,50.6-24.7,58.7-24.7h0.3h0.3c8,0,48.6,1.2,58.7,24.7c0.5,1.4,11.9,32.6,0.1,53.8c-0.1,0.3-0.2,0.5-0.3,0.8
	c-0.5,3.1-1.6,10.9-0.3,16.6l0.2,0.7l-0.7,0.2c-5.5,1.8-15,6.3-17.7,16.1c-3.7,13.7-3.3,33.2,4.8,42.2c6.5,7.2,13.1,11.6,19,12.6
	l0.8,0.1l-0.1,0.8c-0.4,2.9-0.6,7.3,1,11.9c4.8,13.3,12.6,39.2,10.9,52.2c-0.9,6.6-2.5,19-12.6,29.7c-12.1,12.9-33.2,19.8-62.6,20.6
	c-0.1,0-0.2,0-0.3,0h-0.1h-0.9L247.2,457.4z M248.1,455.8h0.8c0.2,0,0.3,0,0.5,0c29-0.7,49.7-7.5,61.5-20
	c9.7-10.3,11.3-22.3,12.1-28.8c1.7-12.6-6-38.2-10.8-51.4c-1.6-4.5-1.6-8.8-1.2-11.9c-6-1.3-12.6-5.8-19.1-13
	c-8.5-9.5-9-29.6-5.2-43.8c2.8-10.2,12.2-14.9,18.1-17c-1.1-5.9,0-13.4,0.5-16.5c0.1-0.5,0.2-0.9,0.5-1.4c11.4-20.5,0.2-51-0.2-52.3
	c-9.6-22.5-49.3-23.6-57.1-23.6h-0.4h-0.3c-7.8,0-47.5,1.1-57.1,23.7c-0.5,1.3-11.6,31.7-0.2,52.3c0.2,0.4,0.4,0.9,0.5,1.4
	c0.5,3.1,1.5,10.6,0.5,16.5c5.9,2,15.3,6.8,18.1,17c3.9,14.1,3.4,34.3-5.2,43.8c-6.5,7.2-13.1,11.7-19.1,13
	c0.4,3.1,0.4,7.4-1.2,11.9c-4.8,13.2-12.5,38.8-10.8,51.4c0.9,6.5,2.4,18.5,12.1,28.8c11.8,12.6,32.5,19.3,61.5,20
	c0.2,0,0.3,0,0.5,0L248.1,455.8z M316.2,340.5L316.2,340.5v-1.7V340.5z"/>
<path class="st8" d="M250.5,477c0,0-0.2,1.2-2.2,1.2s-2.1-1.2-2.1-1.2v-19.6h4.2V477H250.5z"/>
<path class="st9" d="M236.7,472.4c2.8,0,3.1-3.8,3.1-3.8h11.3V467v-1.6h-11.3c0,0-0.3-3.8-3.1-3.8c0,0-3.4,0.3-3.4,5.3
	S236.7,472.4,236.7,472.4z"/>
<path class="st10" d="M236.7,472.4c2.8,0,3.1-3.8,3.1-3.8h11.3V467h-17.8C233.2,472.1,236.7,472.4,236.7,472.4z"/>
<rect x="246.3" y="470.4" class="st11" width="4.2" height="2.2"/>
<path class="st8" d="M252.8,462.9h-8.9c-0.6,0-1.1,0.5-1.1,1.1v6.3c0,0.6,0.5,1.1,1.1,1.1h8.9c0.6,0,1.1-0.5,1.1-1.1V464
	C253.9,463.4,253.4,462.9,252.8,462.9z"/>
<path class="st12" d="M242.8,466.9v3.4c0,0.6,0.5,1.1,1.1,1.1h8.9c0.6,0,1.1-0.5,1.1-1.1v-3.4H242.8z"/>
<path class="st13" d="M261.2,376c-4,2-7.7,2.5-12.7,2.5s-8.7-0.5-12.7-2.5c0,0,15.4,47.4,5.9,81.5c0,0,0.6,3.6,6.9,3.6
	c6.3,0,6.8-3.6,6.8-3.6C245.6,422.6,261.2,376,261.2,376z"/>
<g>
	<path class="st12" d="M228.2,311.1c0-0.8,0-1.6-0.2-2.3c-0.1-0.7-0.4-1.4-0.8-1.9c-0.8-0.9-1.9-0.8-3.3-0.5c-1.3,0.3-2.1,1-2.7,2
		c-0.6,1-1,2.3-1.3,3.6c-0.5,2.8-0.7,5.8-0.7,8.8c0,1.5,0,3,0.1,4.7v4.8c0,3.2-0.1,6.4-0.5,9.6c-0.2,1.6-0.4,3.3-0.7,4.9
		c-0.3,1.7-0.8,3.4-1.6,5.1c-0.2,0.4-0.5,0.9-0.7,1.3c-0.1,0.2-0.3,0.4-0.5,0.6c-0.1,0.2-0.1,0.2-0.2,0.3l-0.2,0.3
		c-0.7,0.7-1.4,1.3-2.2,1.9c-1.7,1-3.7,1.6-5.7,1.2c-1-0.2-1.9-0.7-2.7-1.3c-0.8-0.7-1.3-1.5-1.5-2.4c-0.5-1.8,0-3.6,0.7-5
		c-0.2,1.6,0,3.2,0.8,4.3c0.7,1.1,1.9,1.6,3.1,1.6c1.2,0,2.3-0.6,3.2-1.4c0.4-0.4,0.8-0.9,1.2-1.4l0.1-0.2c0-0.1,0.1-0.2,0.1-0.2
		c0.1-0.1,0.1-0.2,0.2-0.4c0.1-0.3,0.2-0.5,0.3-0.8c0.4-1.2,0.6-2.6,0.7-4.1c0.1-1.5,0.2-3,0.3-4.5c0.1-3.1,0.1-6.2,0.1-9.3
		c0.1-3.2,0-6.2,0.2-9.6c0.2-3.3,0.6-6.6,1.8-9.9c0.6-1.7,1.4-3.4,2.8-4.8c0.7-0.7,1.5-1.4,2.5-1.8c0.9-0.4,1.9-0.6,2.9-0.6
		c0.5,0,0.9,0,1.4,0.1s1,0.2,1.5,0.4c1,0.4,1.9,1.2,2.2,2.1C229.3,308,228.8,309.7,228.2,311.1z"/>
	
		<ellipse transform="matrix(0.3778 -0.9259 0.9259 0.3778 -193.1407 407.1839)" class="st12" cx="206.4" cy="347.3" rx="5.1" ry="3.4"/>
	
		<ellipse transform="matrix(0.3778 -0.9259 0.9259 0.3778 -145.8983 401.69)" class="st12" cx="225.9" cy="309.4" rx="4.2" ry="2.8"/>
</g>
<g>
	<path class="st14" d="M275.5,72.2c-4,0-4.4,4.2-4.4,4.2H255v3.4v3.4h16.1c0,0,0.4,4.2,4.4,4.2c0,0,10.4-0.4,10.4-7.6
		S275.5,72.2,275.5,72.2z"/>
	<path class="st14" d="M275.5,48.5c-4,0-4.4,4.2-4.4,4.2H255v3.4v3.4h16.1c0,0,0.4,4.2,4.4,4.2c0,0,10.4-0.4,10.4-7.6
		S275.5,48.5,275.5,48.5z"/>
	<path class="st14" d="M219.7,71.8c4,0,4.4-4.2,4.4-4.2h16.1v-3.5v-3.4h-16.1c0,0-0.4-4.2-4.4-4.2c0,0-10.4,0.4-10.4,7.6
		S219.7,71.8,219.7,71.8z"/>
	<path class="st14" d="M219.7,95.5c4,0,4.4-4.2,4.4-4.2h16.1v-3.4v-3.4h-16.1c0,0-0.4-4.2-4.4-4.2c0,0-10.4,0.4-10.4,7.6
		S219.7,95.5,219.7,95.5z"/>
</g>
<g>
	<path class="st12" d="M267.7,311.1c0-0.8,0-1.6,0.2-2.3c0.1-0.7,0.4-1.4,0.8-1.9c0.8-0.9,1.9-0.8,3.3-0.5c1.3,0.3,2.1,1,2.7,2
		s1,2.3,1.3,3.6c0.5,2.8,0.7,5.8,0.7,8.8c0,1.5,0,3-0.1,4.7v4.8c0,3.2,0.1,6.4,0.5,9.6c0.2,1.6,0.4,3.3,0.7,4.9
		c0.3,1.7,0.8,3.4,1.6,5.1c0.2,0.4,0.5,0.9,0.7,1.3c0.1,0.2,0.3,0.4,0.5,0.6c0.1,0.2,0.1,0.2,0.2,0.3l0.2,0.3
		c0.7,0.7,1.4,1.3,2.2,1.9c1.7,1,3.7,1.6,5.8,1.2c1-0.2,1.9-0.7,2.7-1.3c0.8-0.7,1.3-1.5,1.5-2.4c0.5-1.8,0-3.6-0.7-5
		c0.2,1.6,0,3.2-0.8,4.3c-0.7,1.1-1.9,1.6-3.1,1.6s-2.3-0.6-3.2-1.4c-0.4-0.4-0.8-0.9-1.2-1.4l-0.1-0.2c0-0.1-0.1-0.2-0.1-0.2
		c-0.1-0.1-0.1-0.2-0.2-0.4c-0.1-0.3-0.2-0.5-0.3-0.8c-0.4-1.2-0.6-2.6-0.7-4.1s-0.2-3-0.2-4.5c-0.1-3.1-0.1-6.2-0.1-9.3
		c-0.1-3.2,0-6.2-0.2-9.6c-0.2-3.3-0.6-6.6-1.8-9.9c-0.6-1.7-1.4-3.4-2.8-4.8c-0.7-0.7-1.5-1.4-2.5-1.8c-0.9-0.4-2-0.6-2.9-0.6
		c-0.5,0-0.9,0-1.4,0.1s-1,0.2-1.5,0.4c-1,0.4-1.9,1.2-2.2,2.1C266.6,308,267.1,309.7,267.7,311.1z"/>
	
		<ellipse transform="matrix(0.9259 -0.3778 0.3778 0.9259 -109.755 135.0875)" class="st12" cx="289.4" cy="347.3" rx="3.4" ry="5.1"/>
	
		<ellipse transform="matrix(0.9259 -0.3778 0.3778 0.9259 -96.9116 124.9267)" class="st12" cx="270" cy="309.5" rx="2.8" ry="4.2"/>
</g>
<path class="st15" d="M259.7,31.9c0,0-1.3-5.5-5.5-5.5c0,0-0.4-8.1-6.4-8.5h-0.4c-5.9,0.4-6.4,8.5-6.4,8.5c-4.2,0-5.5,5.5-5.5,5.5
	c-4.7,0.4-3.8,3.8-3.8,3.8c-0.4,6.4,6.4,6.4,6.4,6.4c-1.7,3,1.7,4.2,1.7,4.2l-3,43.2c-1.3,11,3.8-1.6,3.8-1.6l7-0.4l7,0.4
	c0,0,5.1,12.7,3.8,1.6l-3-43.2c0,0,3.4-1.3,1.7-4.2c0,0,6.8,0,6.4-6.4C263.5,35.7,264.3,32.4,259.7,31.9z"/>
<path class="st16" d="M255.4,46.3c0,0-2.5,1.3-7.8,1.3s-7.8-1.3-7.8-1.3s-1.8-0.7-2.1-2.2c-0.5,2.2,2.1,3.2,2.1,3.2s2.5,1.3,7.8,1.3
	s7.8-1.3,7.8-1.3s2.6-1,2.1-3.2C257.2,45.7,255.4,46.3,255.4,46.3z"/>
<g>
	<polygon class="st17" points="248.3,59.4 256.3,59.4 255.9,52.7 248.3,52.7 	"/>
	<polygon class="st17" points="247.8,60.7 238.8,60.7 238.4,67.5 247.8,67.5 	"/>
	<polygon class="st17" points="251.7,83.2 258,83.2 257.5,76.4 251.7,76.4 	"/>
	<path class="st17" d="M244.6,84.5h-7.4l-0.3,5.1c-0.1,0.6-0.1,1.1-0.1,1.7h7.9L244.6,84.5C244.7,84.5,244.6,84.5,244.6,84.5z"/>
</g>
<polygon class="st18" points="258.9,286.3 255.8,95.9 247.6,97.1 239.3,95.9 236.2,286.3 "/>
<polygon class="st17" points="252.1,44.6 255.8,95.9 247.6,97.1 239.3,95.9 243.1,44.6 "/>
<path class="st19" d="M268.5,335.2l-3.2-2c-0.2-0.1-0.4-0.2-0.6-0.2h-33.2c-0.2,0-0.4,0.1-0.6,0.2l-3.2,2c-0.3,0.2-0.5,0.5-0.5,0.9
	s0.1,0.7,0.4,0.9l3.2,2.4c0.2,0.1,0.4,0.2,0.7,0.2h33.2c0.2,0,0.5-0.1,0.7-0.2l3.2-2.4c0.3-0.2,0.5-0.6,0.4-0.9
	C269,335.7,268.8,335.4,268.5,335.2z"/>
<g>
	<path class="st20" d="M239.8,381.6c-0.1,0-0.3-0.2-0.3-0.4l-1.3-44.1l3.6-236.6l0.6-15.9c0-0.2,0.2-0.4,0.4-0.4s0.4,0.2,0.4,0.4
		l-0.6,15.9l-3.9,236.6l1.4,44C240.1,381.4,239.9,381.6,239.8,381.6L239.8,381.6z"/>
	<path class="st20" d="M245.4,381.1c-0.1,0-0.2-0.2-0.2-0.4l-0.9-43.5l1.4-236l0.4-41c0-0.2,0.2-0.4,0.4-0.4s0.4,0.2,0.4,0.4
		l-0.4,41l-1.8,236l0.9,43.5C245.7,380.8,245.6,381,245.4,381.1L245.4,381.1z"/>
	<path class="st20" d="M256.1,381.6L256.1,381.6c-0.2,0-0.3-0.2-0.3-0.5l1.4-44.1l-3.9-236.5l-0.6-24.6c0-0.2,0.2-0.4,0.4-0.4
		s0.4,0.2,0.4,0.4l0.6,24.6l3.6,236.5l-1.3,44.1C256.4,381.4,256.3,381.6,256.1,381.6z"/>
	<path class="st20" d="M250.5,381.1L250.5,381.1c-0.1,0-0.2-0.2-0.2-0.4l0.9-43.5l-1.8-236l-0.5-49.1c0-0.2,0.2-0.4,0.4-0.4l0,0
		c0.2,0,0.4,0.2,0.4,0.4l0.5,49.1l1.4,236l-0.9,43.5C250.7,380.9,250.6,381.1,250.5,381.1z"/>
</g>
<path class="st21" d="M259.7,31.9c0,0-1.3-5.5-5.5-5.5c0,0-0.4-8.1-6.4-8.5h-0.4c-5.9,0.4-6.4,8.5-6.4,8.5c-4.2,0-5.5,5.5-5.5,5.5
	c-4.7,0.4-3.8,3.8-3.8,3.8c-0.4,6.4,6.4,6.4,6.4,6.4c-1.7,3,1.7,4.2,1.7,4.2s2.5,1.3,7.8,1.3s7.8-1.3,7.8-1.3s3.4-1.3,1.7-4.2
	c0,0,6.8,0,6.4-6.4C263.5,35.7,264.3,32.4,259.7,31.9z"/>
<g>
	<path class="st22" d="M254.2,26.4c0,1.3,0.2,2.7,0.3,4c0.2,1.3,0.4,2.6,0.7,3.9s0.7,2.6,1,3.8c0.3,1.3,0.7,2.6,0.9,3.9H257
		c-0.7-1.2-1.2-2.4-1.7-3.7c-0.4-1.3-0.6-2.6-0.9-4C254.2,31.8,254,29.1,254.2,26.4L254.2,26.4z"/>
	<path class="st22" d="M259.7,31.9c0.3,1.4,0.7,2.8,1.1,4.2c0.2,0.7,0.5,1.4,0.6,2.1c0.1,0.7,0.3,1.4,0.3,2.2h-0.1
		c-0.5-0.6-0.8-1.3-1-2c-0.3-0.7-0.3-1.4-0.5-2.1C259.9,34.8,259.7,33.4,259.7,31.9L259.7,31.9z"/>
	<path class="st22" d="M241.1,26.4c0.2,2.7,0,5.4-0.5,8c-0.2,1.3-0.4,2.7-0.9,4c-0.4,1.3-0.9,2.5-1.7,3.7h-0.1
		c0.3-1.3,0.6-2.6,0.9-3.9c0.3-1.3,0.7-2.6,1-3.8c0.3-1.3,0.5-2.6,0.7-3.9C240.9,29.1,241,27.8,241.1,26.4L241.1,26.4z"/>
	<path class="st22" d="M235.6,31.9c-0.1,1.5-0.2,2.9-0.5,4.4c-0.1,0.7-0.2,1.5-0.5,2.1c-0.3,0.7-0.6,1.4-1,2h-0.1
		c0-0.8,0.1-1.5,0.3-2.2c0.1-0.7,0.4-1.4,0.6-2.1C234.8,34.7,235.2,33.3,235.6,31.9L235.6,31.9z"/>
</g>
</svg>
