<?xml version="1.0" encoding="utf-8"?>
<!-- Generator: Adobe Illustrator 24.1.2, SVG Export Plug-In . SVG Version: 6.00 Build 0)  -->
<svg version="1.1" id="Layer_1" xmlns="http://www.w3.org/2000/svg" xmlns:xlink="http://www.w3.org/1999/xlink" x="0px" y="0px"
	 viewBox="0 0 496.2 496.2" style="enable-background:new 0 0 496.2 496.2;" xml:space="preserve">
<style type="text/css">
	.st0{fill:#9BB8D2;}
	.st1{fill:#7A4315;}
	.st2{fill:#E5AA17;}
	.st3{fill:#683713;}
	.st4{fill:#381C0C;}
	.st5{fill:#825338;}
</style>
<path class="st0" d="M496.2,248.1C496.2,111.1,385.1,0,248.1,0S0,111.1,0,248.1s111.1,248.1,248.1,248.1S496.2,385.1,496.2,248.1z"
	/>
<polygon class="st1" points="409,367 65.2,311.4 65.2,186.2 409,129.2 "/>
<g>
	<path class="st2" d="M106.2,295.6c0,4.6-3.7,6.1-8.3,6.1H85.3c-4.6,0-8.3-1.5-8.3-6.1V202c0-4.6,3.7-6.1,8.3-6.1h12.5
		c4.6,0,8.3,1.5,8.3,6.1L106.2,295.6L106.2,295.6z"/>
	<path class="st2" d="M138.5,301c0,4.6-3.7,5.9-8.3,5.9h-12.5c-4.6,0-8.3-1.3-8.3-5.9V196.6c0-4.6,3.7-5.9,8.3-5.9h12.5
		c4.6,0,8.3,1.3,8.3,5.9V301z"/>
	<path class="st2" d="M170.9,306.4c0,4.6-3.7,5.7-8.3,5.7h-12.5c-4.6,0-8.3-1.1-8.3-5.7V191.2c0-4.6,3.7-5.7,8.3-5.7h12.5
		c4.6,0,8.3,1.1,8.3,5.7V306.4z"/>
	<path class="st2" d="M203.2,311.8c0,4.6-3.7,5.5-8.3,5.5h-12.5c-4.6,0-8.3-0.9-8.3-5.5v-126c0-4.6,3.7-5.5,8.3-5.5h12.5
		c4.6,0,8.3,0.9,8.3,5.5V311.8z"/>
	<path class="st2" d="M235.5,317.1c0,4.6-3.7,5.2-8.3,5.2h-12.5c-4.6,0-8.3-0.6-8.3-5.2V180.4c0-4.6,3.7-5.2,8.3-5.2h12.5
		c4.6,0,8.3,0.6,8.3,5.2V317.1z"/>
	<path class="st2" d="M267.9,322.5c0,4.6-3.7,5-8.3,5h-12.5c-4.6,0-8.3-0.4-8.3-5V175.1c0-4.6,3.7-5,8.3-5h12.5c4.6,0,8.3,0.4,8.3,5
		V322.5z"/>
	<path class="st2" d="M300.2,327.9c0,4.6-3.7,4.8-8.3,4.8h-12.5c-4.6,0-8.3-0.2-8.3-4.8V169.7c0-4.6,3.7-4.8,8.3-4.8h12.5
		c4.6,0,8.3,0.2,8.3,4.8V327.9z"/>
	<path class="st2" d="M332.6,333.3c0,4.6-3.7,4.6-8.3,4.6h-12.5c-4.6,0-8.3,0-8.3-4.6v-169c0-4.6,3.7-4.6,8.3-4.6h12.5
		c4.6,0,8.3,0,8.3,4.6V333.3z"/>
	<path class="st2" d="M364.9,338.7c0,4.6-3.7,4.4-8.3,4.4h-12.5c-4.6,0-8.3,0.2-8.3-4.4V158.9c0-4.6,3.7-4.4,8.3-4.4h12.5
		c4.6,0,8.3-0.2,8.3,4.4V338.7z"/>
	<path class="st2" d="M397.2,344.1c0,4.6-3.7,4.2-8.3,4.2h-12.5c-4.6,0-8.3,0.4-8.3-4.2V153.5c0-4.6,3.7-4.2,8.3-4.2h12.5
		c4.6,0,8.3-0.4,8.3,4.2V344.1z"/>
</g>
<g>
	<circle class="st3" cx="91.3" cy="208.6" r="4.9"/>
	<circle class="st3" cx="123.6" cy="203.4" r="4.9"/>
	<circle class="st3" cx="156" cy="197.8" r="4.9"/>
	<circle class="st3" cx="188.3" cy="192.6" r="4.9"/>
	<circle class="st3" cx="220.7" cy="187.1" r="4.9"/>
	<circle class="st3" cx="253" cy="181.7" r="4.9"/>
	<circle class="st3" cx="285.3" cy="176.5" r="4.9"/>
	<circle class="st3" cx="317.7" cy="171.1" r="4.9"/>
	<circle class="st3" cx="350" cy="165.7" r="4.9"/>
	<circle class="st3" cx="382.4" cy="160.5" r="4.9"/>
	<circle class="st3" cx="91.3" cy="289" r="4.9"/>
	<circle class="st3" cx="123.6" cy="294.2" r="4.9"/>
	<circle class="st3" cx="156" cy="299.7" r="4.9"/>
	<circle class="st3" cx="188.3" cy="305" r="4.9"/>
	<circle class="st3" cx="220.7" cy="310.5" r="4.9"/>
	<circle class="st3" cx="253" cy="315.9" r="4.9"/>
	<circle class="st3" cx="285.3" cy="321.1" r="4.9"/>
	<circle class="st3" cx="317.7" cy="326.5" r="4.9"/>
	<circle class="st3" cx="350" cy="331.9" r="4.9"/>
	<circle class="st3" cx="382.4" cy="337.1" r="4.9"/>
</g>
<circle class="st4" cx="248.1" cy="255.2" r="20"/>
<path class="st5" d="M231.9,255.2c0-8.9,7.2-16.2,16.2-16.2C257,239.1,231.9,264.1,231.9,255.2z"/>
<path class="st4" d="M248.1,407.3c-2.3,0-4.2-1.9-4.2-4.2v-148c0-2.3,1.9-4.2,4.2-4.2s4.2,1.9,4.2,4.2v148
	C252.3,405.4,250.4,407.3,248.1,407.3z"/>
</svg>
